<?xml version="1.0" encoding="UTF-8" standalone="no"?>
<!-- Uploaded to: SVG Repo, www.svgrepo.com, Generator: SVG Repo Mixer Tools -->

<svg
   fill="#000000"
   width="800px"
   height="800px"
   viewBox="0 0 24 24"
   role="img"
   version="1.1"
   id="svg6"
   sodipodi:docname="mta.svg"
   inkscape:version="1.1.2 (0a00cf5339, 2022-02-04)"
   xmlns:inkscape="http://www.inkscape.org/namespaces/inkscape"
   xmlns:sodipodi="http://sodipodi.sourceforge.net/DTD/sodipodi-0.dtd"
   xmlns="http://www.w3.org/2000/svg"
   xmlns:svg="http://www.w3.org/2000/svg">
  <defs
     id="defs10" />
  <sodipodi:namedview
     id="namedview8"
     pagecolor="#ffffff"
     bordercolor="#666666"
     borderopacity="1.0"
     inkscape:pageshadow="2"
     inkscape:pageopacity="0.0"
     inkscape:pagecheckerboard="0"
     showgrid="false"
     inkscape:zoom="1.0375"
     inkscape:cx="399.51807"
     inkscape:cy="400"
     inkscape:window-width="1920"
     inkscape:window-height="1008"
     inkscape:window-x="0"
     inkscape:window-y="0"
     inkscape:window-maximized="1"
     inkscape:current-layer="svg6" />
  <title
     id="title2">MTA icon</title>
  <path
     d="M15.171 10.07l-1.293-.109v6.861l-1.926.34-.004-7.371-1.637-.145V6.944l4.86.85zm3.668 5.884l-1.142.198-.134-1-1.113.145-.14 1.1-1.473.26 1.458-8.651 1.385.24zm-1.48-2.492l-.305-2.642h-.068l-.31 2.682zM10.991 24c6.59 0 11.932-5.373 11.932-12 0-6.628-5.342-12-11.932-12C6.86 0 3.22 2.112 1.077 5.323l3.307.583.91 6.965c.003-.012.066-.004.066-.004l.998-6.615 3.309.58v10.735l-2.089.367V13.32s.078-1.987.032-2.327c0 0-.09.002-.092-.005l-1.246 7.18-2.075.366L2.672 10.8l-.092-.007c-.032.28.112 2.707.112 2.707v5.298l-1.364.24C3.498 22.044 7.016 24 10.991 24z"
     id="path4"
     style="fill:#083fa9;fill-opacity:1" />
</svg>
