<?xml version="1.0" encoding="UTF-8"?>
<!-- Generator: Blender, SVG Export for Grease Pencil - v1.0 -->
<!DOCTYPE svg PUBLIC "-//W3C//DTD SVG 1.1//EN" "http://www.w3.org/Graphics/SVG/1.1/DTD/svg11.dtd">
<svg version="1.0" x="0px" y="0px" xmlns="http://www.w3.org/2000/svg" width="247px" height="226px" viewBox="0 0 247 226">
	<g id="blender_frame_164">
		<g id="blender_object_GPencil.020">
			<!--Layer: Circle_003_Fills-->
			<g id="Circle_003_Fills">
				<polygon fill="#D9D9D9" stroke="none" fill-opacity="1" points="214.123901,10.000000 209.888306,10.417114 205.815430,11.652588 202.061890,13.658875 198.771973,16.358887 196.072144,19.648804 194.065918,23.402344 192.830322,27.475159 192.413086,31.710632 192.830322,35.946228 194.065918,40.019043 196.072144,43.772522 198.771973,47.062439 202.061890,49.762451 205.815430,51.768738 209.888306,53.004211 214.123901,53.421387 218.359253,53.004211 222.432129,51.768738 226.185669,49.762451 229.475586,47.062439 232.175659,43.772522 234.181885,40.019043 235.417358,35.946228 235.834595,31.710632 235.417358,27.475159 234.181885,23.402344 232.175659,19.648804 229.475586,16.358887 226.185669,13.658875 222.432129,11.652588 218.359253,10.417114" />
				<polygon fill="#D9D9D9" stroke="none" fill-opacity="1" points="118.748230,216.261841 108.015747,209.943481 10.000000,209.943420 10.000000,216.261841" />
				<polygon fill="#D9D9D9" stroke="none" fill-opacity="1" points="98.672180,200.725159 93.676147,194.406799 23.635742,194.406799 18.082703,200.725159" />
				<polygon fill="#D9D9D9" stroke="none" fill-opacity="1" points="88.684937,185.188477 86.768188,178.870117 37.290588,178.870117 31.737549,185.188477" />
				<polygon fill="#D9D9D9" stroke="none" fill-opacity="1" points="84.839905,169.651917 84.217712,163.333496 50.945496,163.333496 45.392456,169.651917" />
				<polygon fill="#D9D9D9" stroke="none" fill-opacity="1" points="84.946960,154.115234 86.218384,147.796875 64.600342,147.796875 59.047119,154.115234" />
				<polygon fill="#D9D9D9" stroke="none" fill-opacity="1" points="89.330139,138.578613 92.707275,132.260254 78.255249,132.260254 72.701965,138.578613" />
				<polygon fill="#D9D9D9" stroke="none" fill-opacity="1" points="99.564392,123.041992 106.404114,116.723633 91.909912,116.723633 86.356873,123.041992" />
				<polygon fill="#D9D9D9" stroke="none" fill-opacity="1" points="112.732239,117.305176 104.508667,124.054077 113.562317,133.107788 119.845520,127.951233 127.014099,124.119568 134.792603,121.760071 142.881836,120.963318 150.970825,121.760071 158.749146,124.119568 165.917725,127.951233 172.201172,133.107788 177.357788,139.391113 181.189209,146.559692 183.548950,154.338013 184.345581,162.427246 183.548950,170.516418 181.189209,178.294739 177.357788,185.463318 188.003662,192.576782 193.018677,183.194580 196.106812,173.014343 197.149536,162.427246 196.106812,151.840088 193.018677,141.659790 188.003662,132.277588 212.785034,132.277588 215.289673,132.775818 217.412842,134.194519 218.831909,136.317749 219.329834,138.822266 219.329834,195.972900 219.943848,199.059021 221.691895,201.675293 224.308228,203.423462 227.394165,204.037354 229.923828,204.037354 233.010010,203.423462 235.626343,201.675293 237.374512,199.059021 237.988403,195.972900 237.988403,128.920410 237.647705,125.463379 236.639526,122.139282 235.001953,119.075745 232.798340,116.390564 230.113159,114.186890 227.049438,112.549316 223.725464,111.541016 220.268311,111.200500 173.374756,111.200500 200.607422,80.384460 202.672363,77.526917 204.043701,74.431671 204.668945,71.217773 204.524170,68.008698 203.614746,64.927734 201.975830,62.093262 199.670166,59.614319 196.786743,57.586060 148.023193,29.992981 146.021362,29.307190 143.797607,29.321838 141.690430,30.034546 140.020630,31.337036 95.545410,81.664276 93.846375,84.600037 93.496521,87.881714 94.548706,91.009888 96.842834,93.508057 97.723022,94.148193 100.909912,95.636230 104.504395,95.887573 107.959351,94.863892 110.748474,92.721130 143.991211,55.104309 145.661255,53.803406 147.769287,53.094971 149.994141,53.086975 151.997314,53.780518 166.349121,61.959473 122.114197,112.290283" />
				<polygon fill="#D9D9D9" stroke="none" fill-opacity="1" points="92.744751,141.659790 89.656616,151.840088 88.613892,162.427246 89.656616,173.014343 92.744751,183.194580 97.759766,192.576782 104.508667,200.800354 112.732239,207.549194 122.114197,212.564148 132.294678,215.652283 142.881836,216.695007 153.468750,215.652283 163.649048,212.564148 173.031250,207.549194 181.255005,200.800354 172.201172,191.746582 165.917725,196.903198 158.749146,200.734863 150.970825,203.094360 142.881836,203.891113 134.792603,203.094360 127.014099,200.734863 119.845520,196.903198 113.562317,191.746582 108.405701,185.463318 104.573975,178.294739 102.214539,170.516418 101.417908,162.427246 102.214539,154.338013 104.573975,146.559692 108.405701,139.391113 97.759766,132.277588" />
			</g>
			<!--Layer: Circle_007_Fills-->
			<g id="Circle_007_Fills">
				<polygon fill="#D9D9D9" stroke="none" fill-opacity="1" points="40.968811,46.179565 42.383911,44.390808 43.924072,42.423035 45.527161,40.362000 47.130859,38.293396 48.673096,36.303040 50.091309,34.476624 51.323364,32.899902 52.322876,31.637451 53.105957,30.669800 53.704346,29.956299 54.150208,29.456177 54.475220,29.128906 54.711853,28.933838 54.891357,28.830200 55.045959,28.777466 55.202026,28.741760 55.363342,28.716187 55.527954,28.700867 55.694458,28.695740 55.860962,28.700867 56.025757,28.716187 56.187073,28.741760 56.342957,28.777466 56.497803,28.830200 56.677246,28.933838 56.913757,29.128906 57.238708,29.456177 57.684570,29.956299 58.283142,30.669800 59.066040,31.637451 60.065735,32.899841 61.297607,34.476624 62.715881,36.303040 64.258301,38.293396 65.861755,40.362000 67.464844,42.423035 69.005249,44.390808 70.420105,46.179565 71.689514,47.762024 72.641113,48.896240 73.414185,49.766968 73.996399,50.344421 74.417175,50.657227 74.705994,50.733887 74.892334,50.603088 75.005554,50.293335 75.077393,49.853577 75.125122,49.250977 75.160950,48.572693 75.182312,47.824219 75.189514,47.031128 75.182312,46.219360 75.160950,45.414612 75.125122,44.642517 75.077393,43.914917 75.005554,43.287231 74.892334,42.681274 74.705994,42.062683 74.417175,41.382996 73.996399,40.593811 73.414185,39.646729 72.641113,38.493164 71.689514,37.135376 70.420105,35.394531 69.005249,33.480896 67.464844,31.423584 65.861755,29.302612 64.258301,27.197632 62.715881,25.188599 61.297607,23.355286 60.065735,21.777588 59.066040,20.515137 58.283142,19.547485 57.684570,18.833923 57.238708,18.333862 56.913757,18.006592 56.677246,17.811462 56.497803,17.707886 56.342957,17.655151 56.187073,17.619385 56.025757,17.593872 55.860962,17.578552 55.694458,17.573425 55.527954,17.578552 55.363342,17.593872 55.202026,17.619385 55.045959,17.655151 54.891357,17.707886 54.711853,17.811462 54.475220,18.006592 54.150208,18.333862 53.704346,18.833923 53.105957,19.547546 52.322876,20.515137 51.323364,21.777588 50.091309,23.355286 48.673096,25.188599 47.130859,27.197632 45.527161,29.302612 43.924072,31.423584 42.383911,33.480896 40.968811,35.394531 39.699463,37.135376 38.747803,38.493164 37.974731,39.646729 37.392517,40.593811 36.971741,41.382996 36.682922,42.062683 36.496582,42.681274 36.383545,43.287231 36.311707,43.914917 36.263794,44.642517 36.228149,45.414612 36.206665,46.219360 36.199585,47.031128 36.206665,47.824219 36.228149,48.572693 36.263794,49.250977 36.311707,49.853577 36.383545,50.293335 36.496582,50.603088 36.682922,50.733887 36.971741,50.657227 37.392517,50.344421 37.974731,49.766968" />
				<polygon fill="#D9D9D9" stroke="none" fill-opacity="1" points="36.383545,68.053101 36.496582,68.362823 36.682922,68.493683 36.971741,68.416962 37.392517,68.104248 37.974731,67.526733 38.747803,66.655975 39.699463,65.521729 40.968811,63.939331 42.383911,62.150513 43.924072,60.182800 45.527161,58.121765 47.130859,56.053162 48.673096,54.062805 50.091309,52.236328 51.323364,50.659607 52.322876,49.397217 53.105957,48.429565 53.704346,47.716003 54.150208,47.215942 54.475220,46.888672 54.711853,46.693542 54.891357,46.589966 55.045959,46.537231 55.202026,46.501465 55.363342,46.475952 55.527954,46.460571 55.694458,46.455505 55.860962,46.460571 56.025757,46.475952 56.187073,46.501465 56.342957,46.537231 56.497803,46.589966 56.677246,46.693542 56.913757,46.888672 57.238708,47.215942 57.684570,47.716003 58.283142,48.429565 59.066040,49.397217 60.065735,50.659607 61.297607,52.236328 62.715881,54.062805 64.258301,56.053162 65.861755,58.121765 67.464844,60.182739 69.005249,62.150513 70.420105,63.939331 71.689514,65.521729 72.641113,66.655975 73.414185,67.526733 73.996399,68.104248 74.417175,68.416962 74.705994,68.493683 74.892334,68.362823 75.005554,68.053101 75.077393,67.613312 75.125122,67.010742 75.160950,66.332428 75.182312,65.583923 75.189514,64.790894 75.182312,63.979126 75.160950,63.174316 75.125122,62.402283 75.077393,61.674683 75.005554,61.046936 74.892334,60.441040 74.705994,59.822449 74.417175,59.142761 73.996399,58.353577 73.414185,57.406433 72.641113,56.252930 71.689514,54.895081 70.420105,53.154297 69.005249,51.240601 67.464844,49.183350 65.861755,47.062317 64.258301,44.957397 62.715881,42.948364 61.297607,41.115051 60.065735,39.537292 59.066040,38.274902 58.283142,37.307251 57.684570,36.593750 57.238708,36.093628 56.913757,35.766357 56.677246,35.571228 56.497803,35.467590 56.342957,35.414856 56.187073,35.379089 56.025757,35.353577 55.860962,35.338257 55.694458,35.333130 55.527954,35.338257 55.363342,35.353577 55.202026,35.379089 55.045959,35.414856 54.891357,35.467590 54.711853,35.571228 54.475220,35.766357 54.150208,36.093628 53.704346,36.593750 53.105957,37.307251 52.322876,38.274902 51.323364,39.537292 50.091309,41.115051 48.673096,42.948364 47.130859,44.957397 45.527161,47.062317 43.924072,49.183350 42.383911,51.240601 40.968811,53.154297 39.699463,54.895081 38.747803,56.252930 37.974731,57.406433 37.392517,58.353577 36.971741,59.142761 36.682922,59.822449 36.496582,60.441040 36.383545,61.046936 36.311707,61.674683 36.263794,62.402283 36.228149,63.174316 36.206665,63.979126 36.199585,64.790894 36.206665,65.583923 36.228149,66.332428" />
			</g>
		</g>
	</g>
</svg>
