<?xml version="1.0" encoding="UTF-8"?>
<!-- Generator: Blender, SVG Export for Grease Pencil - v1.0 -->
<!DOCTYPE svg PUBLIC "-//W3C//DTD SVG 1.1//EN" "http://www.w3.org/Graphics/SVG/1.1/DTD/svg11.dtd">
<svg version="1.0" x="0px" y="0px" xmlns="http://www.w3.org/2000/svg" width="2237px" height="2030px" viewBox="0 0 2237 2030">
	<g id="blender_frame_164">
		<g id="blender_object_GPencil.002">
			<!--Layer: Circle_003_Fills-->
			<g id="Circle_003_Fills">
				<polygon fill="#D9D9D9" stroke="none" fill-opacity="1" points="1995.101562,10.000000 1953.910889,14.056885 1914.303223,26.071777 1877.800781,45.582886 1845.805664,71.840210 1819.548340,103.835083 1800.037109,140.337769 1788.022217,179.945557 1783.964600,221.136230 1788.022217,262.326904 1800.037109,301.934570 1819.548340,338.437256 1845.805664,370.432129 1877.800781,396.689453 1914.303223,416.200684 1953.910889,428.215576 1995.101562,432.272583 2036.291504,428.215576 2075.900146,416.200684 2112.402588,396.689453 2144.397705,370.432129 2170.655029,338.437256 2190.166260,301.934570 2202.180908,262.326904 2206.237793,221.136230 2202.180908,179.945557 2190.166260,140.337769 2170.655029,103.835083 2144.397705,71.840210 2112.402588,45.582886 2075.900146,26.071777 2036.291504,14.056885" />
				<polygon fill="#D9D9D9" stroke="none" fill-opacity="1" points="1067.576172,2015.892822 963.203308,1954.447021 10.000000,1954.446899 10.000000,2015.892822" />
				<polygon fill="#D9D9D9" stroke="none" fill-opacity="1" points="872.336060,1864.799316 823.750610,1803.353516 142.608932,1803.353516 88.604736,1864.799316" />
				<polygon fill="#D9D9D9" stroke="none" fill-opacity="1" points="775.208862,1713.705933 756.570557,1652.260010 275.401825,1652.260010 221.397614,1713.705933" />
				<polygon fill="#D9D9D9" stroke="none" fill-opacity="1" points="737.818359,1562.612305 731.765869,1501.166504 408.193634,1501.166504 354.190491,1562.612305" />
				<polygon fill="#D9D9D9" stroke="none" fill-opacity="1" points="738.859375,1411.518921 751.222961,1350.072998 540.987549,1350.072998 486.984436,1411.518921" />
				<polygon fill="#D9D9D9" stroke="none" fill-opacity="1" points="781.484741,1260.425537 814.328369,1198.979492 673.780457,1198.979492 619.777344,1260.425537" />
				<polygon fill="#D9D9D9" stroke="none" fill-opacity="1" points="881.014038,1109.332031 947.529541,1047.885986 806.573364,1047.885986 752.569153,1109.332031" />
				<polygon fill="#D9D9D9" stroke="none" fill-opacity="1" points="1009.068604,1053.541382 929.095337,1119.174316 1017.142639,1207.221924 1078.246826,1157.074341 1147.960938,1119.811279 1223.606201,1096.864990 1302.273682,1089.116821 1380.940186,1096.864990 1456.584473,1119.811279 1526.298584,1157.074341 1587.403809,1207.221924 1637.551270,1268.326782 1674.814209,1338.040894 1697.761230,1413.685059 1705.508789,1492.352539 1697.761230,1571.019897 1674.814209,1646.664062 1637.551270,1716.378174 1741.083984,1785.556641 1789.854492,1694.315186 1819.886475,1595.312134 1830.026611,1492.352539 1819.886475,1389.392822 1789.854492,1290.389893 1741.083984,1199.148193 1982.083008,1199.148193 2006.438965,1203.993042 2027.088135,1217.790039 2040.885010,1238.438477 2045.730713,1262.795166 2045.730713,1818.583862 2051.699463,1848.596313 2068.700195,1874.039673 2094.143799,1891.040283 2124.155762,1897.010254 2148.756348,1897.010254 2178.769287,1891.040283 2204.211914,1874.039673 2221.212891,1848.596313 2227.183594,1818.583862 2227.183594,1166.499390 2223.872314,1132.880371 2214.066162,1100.553101 2198.141357,1070.760254 2176.709717,1044.646484 2150.595947,1023.215576 2120.802979,1007.290955 2088.476318,997.484680 2054.856445,994.173401 1598.817871,994.173401 1863.656006,694.488159 1883.735107,666.698364 1897.071777,636.597412 1903.153076,605.342163 1901.744141,574.133667 1892.901367,544.171509 1876.961670,516.606689 1854.540039,492.498779 1826.496338,472.774292 1352.275513,204.431519 1332.806641,197.762451 1311.179199,197.904419 1290.687500,204.836304 1274.449219,217.502197 841.927490,706.934082 825.406250,735.484253 822.002502,767.398987 832.235107,797.819763 854.547302,822.115295 863.106201,828.340149 894.099548,842.811584 929.056030,845.255859 962.654602,835.300720 989.778442,814.461792 1313.064575,448.638672 1329.305176,435.987549 1349.804321,429.098511 1371.441162,429.020386 1390.922852,435.765015 1530.493408,515.305054 1100.311279,1004.771667" />
				<polygon fill="#D9D9D9" stroke="none" fill-opacity="1" points="814.693054,1290.389893 784.659912,1389.392822 774.519775,1492.352539 784.659912,1595.312134 814.693054,1694.315186 863.462402,1785.556641 929.095337,1865.530518 1009.068604,1931.163452 1100.311279,1979.933350 1199.312988,2009.965576 1302.273682,2020.106079 1405.232422,2009.965576 1504.236328,1979.933350 1595.476807,1931.163452 1675.451172,1865.530518 1587.403809,1777.483154 1526.298584,1827.630615 1456.584473,1864.893555 1380.940186,1887.839966 1302.273682,1895.588135 1223.606201,1887.839966 1147.960938,1864.893555 1078.246826,1827.630615 1017.142639,1777.483154 966.995178,1716.378174 929.732300,1646.664062 906.786316,1571.019897 899.037720,1492.352539 906.786316,1413.685059 929.732300,1338.040894 966.995178,1268.326782 863.462402,1199.148193" />
			</g>
		</g>
	</g>
</svg>
