<?xml version="1.0" encoding="UTF-8"?>
<!-- Generator: Blender, SVG Export for Grease Pencil - v1.0 -->
<!DOCTYPE svg PUBLIC "-//W3C//DTD SVG 1.1//EN" "http://www.w3.org/Graphics/SVG/1.1/DTD/svg11.dtd">
<svg version="1.0" x="0px" y="0px" xmlns="http://www.w3.org/2000/svg" width="174px" height="186px" viewBox="0 0 174 186">
	<g id="blender_frame_164">
		<g id="blender_object_GPencil.006">
			<!--Layer: subway_003_Fills-->
			<g id="subway_003_Fills">
				<polygon fill="#D9D9D9" stroke="none" fill-opacity="1" points="142.520020,171.925476 146.833740,175.775024 148.246887,176.234253 149.629272,175.531616 151.215393,173.754211 151.756897,172.301270 151.140259,170.949097 123.284851,146.090332 118.595337,150.574768 125.195007,156.464355 130.557739,161.250122 137.157288,167.139709 87.036133,167.139709 87.036133,171.925476" />
				<polygon fill="#D9D9D9" stroke="none" fill-opacity="1" points="55.476807,150.574768 118.595337,150.574768 123.284851,146.090332 115.430969,139.081543 105.716492,139.081543 113.232788,145.789001 60.839539,145.789001 68.355652,139.081543 58.641357,139.081543 22.931885,170.949097 22.315430,172.301270 22.856934,173.754211 24.443054,175.531616 25.825378,176.234253 27.238586,175.775024 31.552307,171.925476 87.036133,171.925476 87.036133,167.139709 36.914917,167.139709 43.514587,161.250122 130.557739,161.250122 125.195007,156.464355 48.877258,156.464355" />
			</g>
			<!--Layer: subway_002_Fills-->
			<g id="subway_002_Fills">
				<polygon fill="#D9D9D9" stroke="none" fill-opacity="1" points="19.552979,60.597107 23.305664,60.597107 27.941040,59.018677 33.227234,56.248108 37.340759,52.933472 41.310791,47.604248 41.310791,74.173828 46.596924,74.173828 46.596924,29.002014 53.412842,28.385010 53.412842,24.852295 46.596924,24.852295 46.596924,10.000000 41.310791,10.000000 41.310791,35.654541 41.051453,37.888550 40.311218,40.338257 39.203491,42.626343 37.899536,44.400757 33.832520,48.719971 30.651001,51.356934 26.552734,53.594788 22.164551,55.090088" />
				<polygon fill="#D9D9D9" stroke="none" fill-opacity="1" points="60.806335,35.011841 62.110229,36.786316 66.177246,41.105530 69.358704,43.742432 73.457214,45.980347 77.845276,47.475586 81.850769,48.000183 92.221558,48.000183 96.227051,47.475586 100.615112,45.980347 104.713501,43.742432 107.895020,41.105530 111.962036,36.786316 115.373291,41.158447 111.403259,45.318970 107.573364,48.493408 107.573364,74.173828 102.644775,74.173828 102.644775,51.184509 95.868713,53.179016 95.868713,74.173828 90.940125,74.173828 90.940125,53.614075 83.132202,53.614075 83.132202,74.173828 78.203613,74.173828 78.203613,53.179016 71.427429,51.184509 71.427429,74.173828 66.498962,74.173828 66.498962,48.493408 62.669006,45.318970 58.699036,41.158447 58.699036,74.173828 53.412842,74.173828 53.412842,28.385010 53.412842,24.852295 53.412842,10.000000 58.699036,10.000000 58.699036,28.040161 58.958496,30.274170 59.698730,32.723877" />
				<polygon fill="#D9D9D9" stroke="none" fill-opacity="1" points="115.113831,30.274170 114.373596,32.723877 113.265991,35.011841 111.962036,36.786316 115.373291,41.158447 115.373291,74.173828 107.573364,74.173828 102.644775,74.173828 95.868713,74.173828 90.940125,74.173828 83.132202,74.173828 78.203613,74.173828 71.427429,74.173828 66.498962,74.173828 58.699036,74.173828 53.412842,74.173828 46.596924,74.173828 41.310791,74.173828 33.193054,74.173828 33.227234,56.248108 27.941040,59.018677 27.941040,74.173828 19.552979,74.173828 19.552979,60.597107 22.164551,55.090088 10.000000,55.090088 10.000000,60.597107 14.266663,60.597107 14.266663,74.173828 10.000000,74.173828 10.000000,78.659363 164.072327,78.659363 164.072327,74.173828 159.805481,74.173828 154.519348,74.173828 146.131226,74.173828 140.879089,74.173828 132.761536,74.173828 127.475342,74.173828 120.659424,74.173828 120.659424,28.385010 120.659424,24.852295 120.659424,10.000000 115.373291,10.000000 115.373291,28.040161" />
				<polygon fill="#D9D9D9" stroke="none" fill-opacity="1" points="133.020874,37.888550 133.761047,40.338257 134.868835,42.626343 136.172729,44.400757 140.239807,48.719971 143.421204,51.356934 147.519592,53.594788 151.907776,55.090088 164.072327,55.090088 164.072327,60.597107 159.805481,60.597107 159.805481,74.173828 154.519348,74.173828 154.519348,60.597107 150.766663,60.597107 146.131226,59.018677 146.131226,74.173828 140.879089,74.173828 140.845093,56.248108 136.731506,52.933472 132.761536,47.604248 132.761536,74.173828 127.475342,74.173828 127.475342,29.002014 120.659424,28.385010 120.659424,24.852295 127.475342,24.852295 127.475342,10.000000 132.761536,10.000000 132.761536,35.654541" />
			</g>
			<!--Layer: subway_001_Fills-->
			<g id="subway_001_Fills">
				<polygon fill="#D9D9D9" stroke="none" fill-opacity="1" points="10.000000,80.568726 164.072327,80.568726 164.072327,157.280518 143.503845,157.280518 143.503845,122.376831 143.014954,118.166138 141.619873,113.548767 139.531982,109.236145 137.074036,105.891602 129.408386,97.750549 123.411804,92.780273 115.686829,88.562256 107.416138,85.743835 99.866516,84.755249 74.205811,84.755249 66.656189,85.743835 58.385437,88.562256 50.660522,92.780273 44.663879,97.750549 36.998108,105.891602 34.540161,109.236145 32.452271,113.548767 31.057312,118.166138 30.568298,122.376831 30.568298,157.280518 10.000000,157.280518" />
			</g>
		</g>
	</g>
</svg>
