<?xml version="1.0" encoding="UTF-8"?>
<!-- Generator: Blender, SVG Export for Grease Pencil - v1.0 -->
<!DOCTYPE svg PUBLIC "-//W3C//DTD SVG 1.1//EN" "http://www.w3.org/Graphics/SVG/1.1/DTD/svg11.dtd">
<svg version="1.0" x="0px" y="0px" xmlns="http://www.w3.org/2000/svg" width="93px" height="98px" viewBox="0 0 93 98">
	<g id="blender_frame_164">
		<g id="blender_object_GPencil.006">
			<!--Layer: subway_003_Fills-->
			<g id="subway_003_Fills">
				<polygon fill="#D9D9D9" stroke="none" fill-opacity="1" points="68.592834,86.277435 70.500122,87.979462 71.124878,88.182526 71.736084,87.871887 72.437317,87.085968 72.676758,86.443573 72.404175,85.845734 60.088013,74.854614 58.014648,76.837341 60.932617,79.441406 63.303711,81.557404 66.221680,84.161469 44.060852,84.161469 44.060852,86.277435" />
				<polygon fill="#D9D9D9" stroke="none" fill-opacity="1" points="30.107178,76.837341 58.014648,76.837341 60.088013,74.854614 56.615479,71.755676 52.320374,71.755676 55.643616,74.721344 32.478333,74.721344 35.801453,71.755676 31.506409,71.755676 15.717651,85.845734 15.445129,86.443573 15.684509,87.085968 16.385864,87.871887 16.996948,88.182526 17.621826,87.979462 19.529114,86.277435 44.060852,86.277435 44.060852,84.161469 21.900208,84.161469 24.818176,81.557404 63.303711,81.557404 60.932617,79.441406 27.189209,79.441406" />
			</g>
			<!--Layer: subway_002_Fills-->
			<g id="subway_002_Fills">
				<polygon fill="#D9D9D9" stroke="none" fill-opacity="1" points="14.223694,37.054321 15.882935,37.054321 17.932434,36.356445 20.269714,35.131470 22.088501,33.665863 23.843811,31.309631 23.843811,43.057159 26.180969,43.057159 26.180969,23.084747 29.194641,22.811920 29.194641,21.249969 26.180969,21.249969 26.180969,14.683167 23.843811,14.683167 23.843811,26.026154 23.729126,27.013916 23.401855,28.097015 22.912048,29.108673 22.335571,29.893250 20.537292,31.802917 19.130615,32.968811 17.318542,33.958313 15.378357,34.619415" />
				<polygon fill="#D9D9D9" stroke="none" fill-opacity="1" points="32.463684,25.741974 33.040161,26.526550 34.838379,28.436218 36.244995,29.602112 38.057190,30.591614 39.997131,31.252716 41.768250,31.484650 46.353699,31.484650 48.124695,31.252716 50.064758,30.591614 51.876892,29.602112 53.283630,28.436218 55.081787,26.526550 56.590027,28.459656 54.834717,30.299225 53.141418,31.702728 53.141418,43.057159 50.962219,43.057159 50.962219,32.892609 47.966248,33.774475 47.966248,43.057159 45.787048,43.057159 45.787048,33.966858 42.334839,33.966858 42.334839,43.057159 40.155701,43.057159 40.155701,33.774475 37.159668,32.892609 37.159668,43.057159 34.980530,43.057159 34.980530,31.702728 33.287231,30.299225 31.531921,28.459656 31.531921,43.057159 29.194641,43.057159 29.194641,22.811920 29.194641,21.249969 29.194641,14.683167 31.531921,14.683167 31.531921,22.659454 31.646606,23.647217 31.973877,24.730316" />
				<polygon fill="#D9D9D9" stroke="none" fill-opacity="1" points="56.475342,23.647217 56.148132,24.730316 55.658264,25.741974 55.081787,26.526550 56.590027,28.459656 56.590027,43.057159 53.141418,43.057159 50.962219,43.057159 47.966248,43.057159 45.787048,43.057159 42.334839,43.057159 40.155701,43.057159 37.159668,43.057159 34.980530,43.057159 31.531921,43.057159 29.194641,43.057159 26.180969,43.057159 23.843811,43.057159 20.254578,43.057159 20.269714,35.131470 17.932434,36.356445 17.932434,43.057159 14.223694,43.057159 14.223694,37.054321 15.378357,34.619415 10.000000,34.619415 10.000000,37.054321 11.886414,37.054321 11.886414,43.057159 10.000000,43.057159 10.000000,45.040436 78.121948,45.040436 78.121948,43.057159 76.235413,43.057159 73.898132,43.057159 70.189392,43.057159 67.867249,43.057159 64.278137,43.057159 61.940979,43.057159 58.927246,43.057159 58.927246,22.811920 58.927246,21.249969 58.927246,14.683167 56.590027,14.683167 56.590027,22.659454" />
				<polygon fill="#D9D9D9" stroke="none" fill-opacity="1" points="64.392761,27.013916 64.720093,28.097015 65.209900,29.108673 65.786377,29.893250 67.584595,31.802917 68.991333,32.968811 70.803345,33.958313 72.743469,34.619415 78.121948,34.619415 78.121948,37.054321 76.235413,37.054321 76.235413,43.057159 73.898132,43.057159 73.898132,37.054321 72.238892,37.054321 70.189392,36.356445 70.189392,43.057159 67.867249,43.057159 67.852234,35.131470 66.033447,33.665863 64.278137,31.309631 64.278137,43.057159 61.940979,43.057159 61.940979,23.084747 58.927246,22.811920 58.927246,21.249969 61.940979,21.249969 61.940979,14.683167 64.278137,14.683167 64.278137,26.026154" />
			</g>
			<!--Layer: subway_001_Fills-->
			<g id="subway_001_Fills">
				<polygon fill="#D9D9D9" stroke="none" fill-opacity="1" points="10.000000,45.884644 78.121948,45.884644 78.121948,79.802246 69.027893,79.802246 69.027893,64.369812 68.811646,62.508087 68.194885,60.466553 67.271667,58.559753 66.184875,57.080994 62.795471,53.481476 60.144165,51.283905 56.728699,49.418945 53.071838,48.172821 49.733826,47.735687 38.388123,47.735687 35.050110,48.172821 31.393250,49.418945 27.977661,51.283905 25.326355,53.481476 21.937073,57.080994 20.850220,58.559753 19.927063,60.466553 19.310303,62.508087 19.094055,64.369812 19.094055,79.802246 10.000000,79.802246" />
			</g>
			<!--Layer: Circle_007_Fills-->
			<g id="Circle_007_Fills">
				<polygon fill="#D9D9D9" stroke="none" fill-opacity="1" points="71.295715,20.736938 71.720764,20.174133 72.194702,19.537903 72.710510,18.838013 73.247437,18.104980 73.784485,17.369293 74.300842,16.661438 74.775818,16.011810 75.188538,15.450989 75.523254,15.002014 75.785522,14.657898 75.985779,14.404114 76.135193,14.226257 76.244141,14.109802 76.323242,14.040466 76.383362,14.003601 76.435181,13.984833 76.487488,13.972137 76.541504,13.963043 76.596619,13.957611 76.652344,13.955780 76.708191,13.957611 76.763306,13.963043 76.817322,13.972137 76.869568,13.984833 76.921326,14.003601 76.981506,14.040466 77.060669,14.109802 77.169617,14.226257 77.318848,14.404114 77.519287,14.657898 77.781555,15.002014 78.116211,15.450989 78.528931,16.011810 79.003906,16.661438 79.520325,17.369293 80.057373,18.104980 80.594299,18.838013 81.110107,19.537903 81.583923,20.174133 82.008972,20.736938 82.327759,21.140350 82.586609,21.450043 82.781677,21.655396 82.922546,21.766663 83.019348,21.793945 83.081604,21.747406 83.119568,21.637207 83.143616,21.480774 83.159546,21.266479 83.171570,21.025269 83.178711,20.759033 83.181091,20.477020 83.178711,20.188232 83.171570,19.902039 83.159546,19.627441 83.143616,19.368683 83.119568,19.145416 83.081604,18.929901 83.019348,18.709930 82.922546,18.468170 82.781677,18.187439 82.586609,17.850586 82.327759,17.440369 82.008972,16.957458 81.583923,16.338287 81.110107,15.657654 80.594299,14.925964 80.057373,14.171631 79.520325,13.422913 79.003906,12.708435 78.528931,12.056396 78.116211,11.495209 77.781555,11.046265 77.519287,10.702118 77.318848,10.448334 77.169617,10.270447 77.060669,10.154022 76.981506,10.084686 76.921326,10.047791 76.869568,10.029053 76.817322,10.016327 76.763306,10.007233 76.708191,10.001831 76.652344,10.000000 76.596619,10.001831 76.541504,10.007233 76.487488,10.016327 76.435181,10.029053 76.383362,10.047791 76.323242,10.084686 76.244141,10.154022 76.135193,10.270447 75.985779,10.448334 75.785522,10.702118 75.523254,11.046265 75.188538,11.495209 74.775818,12.056396 74.300842,12.708435 73.784485,13.422913 73.247437,14.171631 72.710510,14.925964 72.194702,15.657654 71.720764,16.338287 71.295715,16.957458 70.977051,17.440369 70.718140,17.850586 70.523132,18.187439 70.382080,18.468170 70.285400,18.709930 70.223022,18.929901 70.185120,19.145416 70.161194,19.368683 70.145142,19.627441 70.133179,19.902039 70.125916,20.188232 70.123535,20.477020 70.125916,20.759033 70.133179,21.025269 70.145142,21.266479 70.161194,21.480774 70.185120,21.637207 70.223022,21.747406 70.285400,21.793945 70.382080,21.766663 70.523132,21.655396 70.718140,21.450043 70.977051,21.140350" />
				<polygon fill="#D9D9D9" stroke="none" fill-opacity="1" points="70.161194,27.797272 70.185120,27.953705 70.223022,28.063873 70.285400,28.110413 70.382080,28.083130 70.523132,27.971893 70.718140,27.766479 70.977051,27.456787 71.295715,27.053406 71.720764,26.490540 72.194702,25.854370 72.710510,25.154480 73.247437,24.421478 73.784485,23.685760 74.300842,22.977844 74.775818,22.328278 75.188538,21.767487 75.523254,21.318481 75.785522,20.974335 75.985779,20.720581 76.135193,20.542725 76.244141,20.426300 76.323242,20.356903 76.383362,20.320068 76.435181,20.301331 76.487488,20.288605 76.541504,20.279510 76.596619,20.274048 76.652344,20.272247 76.708191,20.274048 76.763306,20.279510 76.817322,20.288605 76.869568,20.301331 76.921326,20.320068 76.981506,20.356903 77.060669,20.426300 77.169617,20.542725 77.318848,20.720581 77.519287,20.974335 77.781555,21.318481 78.116211,21.767487 78.528931,22.328278 79.003906,22.977844 79.520325,23.685760 80.057373,24.421478 80.594299,25.154480 81.110107,25.854370 81.583923,26.490540 82.008972,27.053406 82.327759,27.456787 82.586609,27.766479 82.781677,27.971893 82.922546,28.083130 83.019348,28.110413 83.081604,28.063873 83.119568,27.953705 83.143616,27.797272 83.159546,27.582977 83.171570,27.341736 83.178711,27.075500 83.181091,26.793427 83.178711,26.504730 83.171570,26.218506 83.159546,25.943909 83.143616,25.685120 83.119568,25.461853 83.081604,25.246368 83.019348,25.026337 82.922546,24.784607 82.781677,24.503937 82.586609,24.167053 82.327759,23.756775 82.008972,23.273865 81.583923,22.654755 81.110107,21.974121 80.594299,21.242432 80.057373,20.488068 79.520325,19.739410 79.003906,19.024902 78.528931,18.372833 78.116211,17.811707 77.781555,17.362701 77.519287,17.018585 77.318848,16.764801 77.169617,16.586945 77.060669,16.470520 76.981506,16.401093 76.921326,16.364288 76.869568,16.345551 76.817322,16.332825 76.763306,16.323730 76.708191,16.318268 76.652344,16.316467 76.596619,16.318268 76.541504,16.323730 76.487488,16.332825 76.435181,16.345551 76.383362,16.364288 76.323242,16.401093 76.244141,16.470520 76.135193,16.586945 75.985779,16.764801 75.785522,17.018585 75.523254,17.362701 75.188538,17.811707 74.775818,18.372833 74.300842,19.024902 73.784485,19.739410 73.247437,20.488068 72.710510,21.242432 72.194702,21.974121 71.720764,22.654755 71.295715,23.273865 70.977051,23.756775 70.718140,24.167053 70.523132,24.503937 70.382080,24.784607 70.285400,25.026337 70.223022,25.246368 70.185120,25.461853 70.161194,25.685120 70.145142,25.943909 70.133179,26.218506 70.125916,26.504730 70.123535,26.793427 70.125916,27.075500 70.133179,27.341736 70.145142,27.582977" />
			</g>
		</g>
	</g>
</svg>
