<?xml version="1.0" encoding="UTF-8"?>
<!-- Generator: Blender, SVG Export for Grease Pencil - v1.0 -->
<!DOCTYPE svg PUBLIC "-//W3C//DTD SVG 1.1//EN" "http://www.w3.org/Graphics/SVG/1.1/DTD/svg11.dtd">
<svg version="1.0" x="0px" y="0px" xmlns="http://www.w3.org/2000/svg" width="98px" height="97px" viewBox="0 0 98 97">
	<g id="blender_frame_164">
		<g id="blender_object_GPencil.004">
			<!--Layer: buses_Fills-->
			<g id="buses_Fills">
				<polygon fill="#D9D9D9" stroke="none" fill-opacity="1" points="30.339355,85.166809 29.661743,85.309937 29.904785,87.930176 31.302002,87.635010 32.486572,86.794434 33.277954,85.536560 33.555908,84.052673 31.088623,83.794617 30.953857,84.514160 30.707764,84.905334" />
				<polygon fill="#D9D9D9" stroke="none" fill-opacity="1" points="50.820923,50.987671 50.969971,53.607971 58.343994,53.607971 58.101074,50.987671 55.116089,50.987671 43.687378,40.788635 43.062500,40.585571 42.451416,40.896240 41.750122,41.682068 41.510620,42.324524 41.783203,42.922363" />
				<polygon fill="#D9D9D9" stroke="none" fill-opacity="1" points="28.365234,62.529907 28.790039,63.047424 29.095703,63.619263 31.546021,63.715637 31.216553,62.629639 30.679565,61.625183 29.953613,60.740601 29.064941,60.011230 28.046753,59.467041 26.938843,59.130920 25.784668,59.017273 25.784668,61.475037 26.512207,61.546692 27.204956,61.756836 27.831055,62.091492" />
				<polygon fill="#D9D9D9" stroke="none" fill-opacity="1" points="24.863647,85.309937 24.186157,85.166809 23.817749,84.905334 23.571533,84.514160 23.436768,83.794556 23.436768,80.484253 31.088623,80.484253 31.088623,83.794617 33.555908,84.052673 33.555908,80.484253 33.555908,75.805786 18.736206,75.805786 16.843994,75.406067 15.607788,74.528809 14.781738,73.215942 14.405396,71.206543 14.405396,31.312622 14.621582,29.450928 15.238403,27.409363 16.161621,25.502563 17.248291,24.023804 20.637695,20.424316 23.289062,18.226746 26.704590,16.361755 30.361450,15.115662 33.699463,14.678528 49.234619,14.678528 52.572510,15.115662 56.229370,16.361755 59.644897,18.226746 62.296265,20.424316 65.685669,24.023804 66.772339,25.502563 67.695557,27.409363 68.312256,29.450928 68.528564,31.312622 68.528564,71.206543 68.152100,73.215942 67.326050,74.528809 66.089966,75.406067 64.197876,75.805786 64.631714,80.484253 67.808716,79.813110 70.502197,77.901794 72.301880,75.041443 72.933838,71.667297 72.933838,31.025269 72.633789,28.441040 71.779419,25.612915 70.500488,22.971497 68.991943,20.918823 65.219971,16.912903 62.028198,14.267456 57.921021,12.024719 53.523438,10.526184 49.505127,10.000000 33.428833,10.000000 29.410400,10.526184 25.012939,12.024719 20.905640,14.267456 17.713989,16.912903 13.941895,20.918823 12.433472,22.971497 11.154663,25.612915 10.300049,28.441040 10.000000,31.025269 10.000000,71.667297 10.632080,75.041443 12.431641,77.901794 15.125122,79.813110 18.302368,80.484253 20.969482,80.484253 20.969482,84.052673 21.247437,85.536560 22.038940,86.794434 23.223511,87.635010 24.620605,87.930176 29.904785,87.930176 29.661743,85.309937" />
				<polygon fill="#D9D9D9" stroke="none" fill-opacity="1" points="22.473633,66.065857 22.290283,65.461609 22.229370,64.842590 22.290283,64.223572 22.473633,63.619263 22.779297,63.047424 23.203979,62.529907 23.738281,62.091492 24.364380,61.756836 25.057129,61.546692 25.784668,61.475037 25.784668,59.017273 24.630493,59.130920 23.522461,59.467041 22.504272,60.011230 21.615601,60.740601 20.889648,61.625183 20.352783,62.629639 20.023315,63.715637 19.912354,64.842590 20.023315,65.969604 20.352783,67.055481 20.889648,68.059998 21.615601,68.944580 22.504272,69.673889 23.522461,70.218140 24.630493,70.554199 25.784668,70.667908 26.938843,70.554199 28.046753,70.218140 29.064941,69.673889 29.953613,68.944580 30.679565,68.059998 31.216553,67.055481 31.546021,65.969604 31.656860,64.842590 31.546021,63.715637 29.095703,63.619263 29.278931,64.223572 29.339966,64.842590 29.278931,65.461609 29.095703,66.065857 28.790039,66.637695 28.365234,67.155212 27.831055,67.593628 27.204956,67.928345 26.512207,68.138489 25.784668,68.210083 25.057129,68.138489 24.364380,67.928345 23.738281,67.593628 23.203979,67.155212 22.779297,66.637695" />
				<polygon fill="#D9D9D9" stroke="none" fill-opacity="1" points="33.555908,75.805786 33.555908,80.484253 49.377930,80.484253 51.845215,80.484253 59.497192,80.484253 61.964355,80.484253 64.631714,80.484253 64.197876,75.805786" />
				<polygon fill="#D9D9D9" stroke="none" fill-opacity="1" points="62.044189,68.059998 62.581177,67.055481 62.910522,65.969604 63.021484,64.842590 62.910522,63.715637 62.581177,62.629639 62.044189,61.625183 61.318237,60.740601 60.429565,60.011230 59.411377,59.467041 58.303467,59.130920 57.149292,59.017273 55.995239,59.130920 54.887085,59.467041 53.869019,60.011230 52.980225,60.740601 52.254395,61.625183 51.717529,62.629639 51.388062,63.715637 51.276978,64.842590 51.388062,65.969604 51.717529,67.055481 52.254395,68.059998 52.980225,68.944580 53.869019,69.673889 54.887085,70.218140 55.995239,70.554199 56.421631,68.138489 55.729004,67.928345 55.102783,67.593628 54.568604,67.155212 54.143921,66.637695 53.838257,66.065857 53.654907,65.461609 53.593994,64.842590 53.654907,64.223572 53.838257,63.619263 54.143921,63.047424 54.568604,62.529907 55.102783,62.091492 55.729004,61.756836 56.421631,61.546692 57.149292,61.475037 57.876953,61.546692 58.569580,61.756836 59.195801,62.091492 59.729980,62.529907 60.154663,63.047424 60.460327,63.619263 60.643555,64.223572 62.154907,65.800232 60.429565,69.673889 61.318237,68.944580" />
				<polygon fill="#D9D9D9" stroke="none" fill-opacity="1" points="58.303467,70.554199 59.411377,70.218140 60.429565,69.673889 62.154907,65.800232 60.643555,64.223572 60.704590,64.842590 60.643555,65.461609 60.460327,66.065857 60.154663,66.637695 59.729980,67.155212 59.195801,67.593628 58.569580,67.928345 57.876953,68.138489 57.149292,68.210083 56.421631,68.138489 55.995239,70.554199 57.149292,70.667908" />
				<polygon fill="#D9D9D9" stroke="none" fill-opacity="1" points="50.447388,86.794434 51.631958,87.635010 53.029175,87.930176 58.313232,87.930176 59.710571,87.635010 60.895020,86.794434 61.686523,85.536560 61.964355,84.052673 61.964355,80.484253 59.497192,80.484253 59.497192,83.794556 59.362305,84.514160 59.116211,84.905334 58.747803,85.166809 58.070190,85.309937 53.272095,85.309937 52.594604,85.166809 52.226196,84.905334 51.980103,84.514160 51.845215,83.794617 51.845215,80.484253 49.377930,80.484253 49.378052,84.052673 49.655884,85.536560" />
				<polygon fill="#D9D9D9" stroke="none" fill-opacity="1" points="23.406128,49.472351 23.406128,35.219299 23.540894,34.499695 23.787109,34.108521 24.155396,33.847046 24.833008,33.703979 58.101074,33.703979 58.778442,33.847046 59.146851,34.108521 59.393066,34.499695 59.527832,35.219299 59.527832,49.472351 59.393066,50.191956 59.146851,50.583130 58.778442,50.844604 58.101074,50.987671 58.343994,53.607971 59.741211,53.312805 60.925659,52.472290 61.717163,51.214294 61.995117,49.730469 61.995117,34.961182 61.717163,33.477356 60.925659,32.219421 59.741211,31.378845 58.343994,31.083679 24.589966,31.083679 23.192749,31.378845 22.008301,32.219421 21.216797,33.477356 20.938843,34.961182 20.938843,49.730469 21.216797,51.214294 22.008301,52.472290 23.192749,53.312805 24.589966,53.607971 50.969971,53.607971 50.820923,50.987671 41.306885,50.987671 29.878296,40.788635 29.253418,40.585571 28.642212,40.896240 27.940918,41.682068 27.701538,42.324524 27.973999,42.922363 37.011841,50.987671 24.833008,50.987671 24.155396,50.844604 23.787109,50.583130 23.540894,50.191956" />
				<polygon fill="#D9D9D9" stroke="none" fill-opacity="1" points="26.901367,25.332520 27.150513,25.971191 27.752075,26.235779 55.182007,26.235779 55.783447,25.971191 56.032471,25.332520 56.032471,24.279175 55.783447,23.640503 55.182007,23.375916 27.752075,23.375916 27.150513,23.640503 26.901367,24.279175" />
			</g>
			<!--Layer: Circle_007_Fills-->
			<g id="Circle_007_Fills">
				<polygon fill="#D9D9D9" stroke="none" fill-opacity="1" points="77.442261,21.518494 77.916260,20.882263 78.432129,20.182434 78.968872,19.449341 79.505981,18.713623 80.022461,18.005737 80.497437,17.356201 80.910034,16.795349 81.244751,16.346436 81.507080,16.002197 81.707397,15.748474 81.856689,15.570618 81.965576,15.454163 82.044800,15.384827 82.104980,15.347961 82.156738,15.329224 82.208984,15.316467 82.263062,15.307373 82.318115,15.301941 82.373901,15.300171 82.429688,15.301941 82.484985,15.307373 82.538940,15.316467 82.591064,15.329224 82.642944,15.347961 82.703003,15.384827 82.782227,15.454163 82.891113,15.570618 83.040405,15.748474 83.240967,16.002197 83.503052,16.346436 83.837891,16.795349 84.250366,17.356201 84.725464,18.005737 85.241821,18.713623 85.778931,19.449341 86.315796,20.182434 86.831665,20.882263 87.305420,21.518494 87.730591,22.081299 88.049316,22.484680 88.308228,22.794373 88.503174,22.999756 88.644043,23.111023 88.740845,23.138306 88.803223,23.091797 88.841064,22.981567 88.865234,22.825134 88.881226,22.610840 88.893188,22.369629 88.900391,22.103394 88.902710,21.821350 88.900391,21.532593 88.893188,21.246399 88.881226,20.971802 88.865234,20.713013 88.841064,20.489807 88.803223,20.274292 88.740845,20.054199 88.644043,19.812561 88.503174,19.531799 88.308228,19.194946 88.049316,18.784668 87.730591,18.301758 87.305420,17.682678 86.831665,17.002014 86.315796,16.270325 85.778931,15.515930 85.241821,14.767334 84.725464,14.052795 84.250366,13.400696 83.837891,12.839600 83.503052,12.390564 83.240967,12.046448 83.040405,11.792603 82.891113,11.614807 82.782227,11.498413 82.703003,11.429016 82.642944,11.392151 82.591064,11.373413 82.538940,11.360718 82.484985,11.351624 82.429688,11.346191 82.373901,11.344360 82.318115,11.346191 82.263062,11.351624 82.208984,11.360718 82.156738,11.373413 82.104980,11.392151 82.044800,11.429016 81.965576,11.498413 81.856689,11.614807 81.707397,11.792603 81.507080,12.046448 81.244751,12.390564 80.910034,12.839600 80.497437,13.400696 80.022461,14.052795 79.505981,14.767334 78.968872,15.515930 78.432129,16.270325 77.916260,17.002014 77.442261,17.682678 77.017212,18.301758 76.698486,18.784668 76.439697,19.194946 76.244629,19.531799 76.103638,19.812561 76.006958,20.054199 75.944580,20.274292 75.906738,20.489807 75.882690,20.713013 75.866699,20.971802 75.854736,21.246399 75.847534,21.532593 75.845093,21.821350 75.847534,22.103394 75.854736,22.369629 75.866699,22.610840 75.882690,22.825134 75.906738,22.981567 75.944580,23.091797 76.006958,23.138306 76.103638,23.111023 76.244629,22.999756 76.439697,22.794373" />
				<polygon fill="#D9D9D9" stroke="none" fill-opacity="1" points="75.906738,29.298035 75.944580,29.408203 76.006958,29.454712 76.103638,29.427490 76.244629,29.316223 76.439697,29.110840 76.698486,28.801147 77.017212,28.397705 77.442261,27.834900 77.916260,27.198730 78.432129,26.498840 78.968872,25.765808 79.505981,25.030151 80.022461,24.322266 80.497437,23.672668 80.910034,23.111877 81.244751,22.662842 81.507080,22.318726 81.707397,22.064880 81.856689,21.887024 81.965576,21.770691 82.044800,21.701233 82.104980,21.664429 82.156738,21.645691 82.208984,21.632996 82.263062,21.623901 82.318115,21.618408 82.373901,21.616638 82.429688,21.618408 82.484985,21.623901 82.538940,21.632996 82.591064,21.645691 82.642944,21.664429 82.703003,21.701233 82.782227,21.770691 82.891113,21.887024 83.040405,22.064880 83.240967,22.318726 83.503052,22.662842 83.837891,23.111877 84.250366,23.672668 84.725464,24.322266 85.241821,25.030151 85.778931,25.765808 86.315796,26.498840 86.831665,27.198730 87.305420,27.834900 87.730591,28.397705 88.049316,28.801147 88.308228,29.110840 88.503174,29.316223 88.644043,29.427490 88.740845,29.454712 88.803223,29.408203 88.841064,29.298035 88.865234,29.141602 88.881226,28.927368 88.893188,28.686096 88.900391,28.419861 88.902710,28.137817 88.900391,27.849060 88.893188,27.562866 88.881226,27.288269 88.865234,27.029480 88.841064,26.806274 88.803223,26.590698 88.740845,26.370728 88.644043,26.128967 88.503174,25.848267 88.308228,25.511414 88.049316,25.101135 87.730591,24.618225 87.305420,23.999146 86.831665,23.318481 86.315796,22.586792 85.778931,21.832397 85.241821,21.083801 84.725464,20.369202 84.250366,19.717224 83.837891,19.156067 83.503052,18.707092 83.240967,18.362915 83.040405,18.109192 82.891113,17.931335 82.782227,17.814880 82.703003,17.745483 82.642944,17.708679 82.591064,17.689880 82.538940,17.677124 82.484985,17.668091 82.429688,17.662598 82.373901,17.660828 82.318115,17.662598 82.263062,17.668091 82.208984,17.677124 82.156738,17.689880 82.104980,17.708679 82.044800,17.745483 81.965576,17.814880 81.856689,17.931335 81.707397,18.109192 81.507080,18.362915 81.244751,18.707092 80.910034,19.156067 80.497437,19.717224 80.022461,20.369202 79.505981,21.083801 78.968872,21.832397 78.432129,22.586792 77.916260,23.318481 77.442261,23.999146 77.017212,24.618225 76.698486,25.101135 76.439697,25.511414 76.244629,25.848267 76.103638,26.128967 76.006958,26.370728 75.944580,26.590698 75.906738,26.806274 75.882690,27.029480 75.866699,27.288269 75.854736,27.562866 75.847534,27.849060 75.845093,28.137817 75.847534,28.419861 75.854736,28.686096" />
			</g>
		</g>
	</g>
</svg>
