<?xml version="1.0" encoding="UTF-8"?>
<!-- Generator: Blender, SVG Export for Grease Pencil - v1.0 -->
<!DOCTYPE svg PUBLIC "-//W3C//DTD SVG 1.1//EN" "http://www.w3.org/Graphics/SVG/1.1/DTD/svg11.dtd">
<svg version="1.0" x="0px" y="0px" xmlns="http://www.w3.org/2000/svg" width="162px" height="196px" viewBox="0 0 162 196">
	<g id="blender_frame_164">
		<g id="blender_object_GPencil.004">
			<!--Layer: buses_Fills-->
			<g id="buses_Fills">
				<polygon fill="#D9D9D9" stroke="none" fill-opacity="1" points="56.001465,180.005432 54.469055,180.329163 55.018677,186.255432 58.178833,185.587830 60.857910,183.686829 62.647949,180.841736 63.276489,177.485657 57.696167,176.902039 57.391418,178.529358 56.834595,179.414246" />
				<polygon fill="#D9D9D9" stroke="none" fill-opacity="1" points="102.324829,102.702271 102.662048,108.628479 119.339844,108.628479 118.790222,102.702271 112.039185,102.702271 86.190979,79.634918 84.777771,79.175659 83.395447,79.878296 81.809326,81.655731 81.267822,83.108673 81.884399,84.460785" />
				<polygon fill="#D9D9D9" stroke="none" fill-opacity="1" points="51.536865,128.807434 52.497375,129.977905 53.188660,131.271240 58.730408,131.489075 57.985413,129.033020 56.770935,126.761047 55.129150,124.760498 53.119141,123.110901 50.816467,121.880066 48.310303,121.119873 45.700195,120.862793 45.700195,126.421570 47.345703,126.583679 48.912415,127.058899 50.328674,127.815857" />
				<polygon fill="#D9D9D9" stroke="none" fill-opacity="1" points="43.617065,180.329163 42.084656,180.005432 41.251526,179.414246 40.694885,178.529358 40.389954,176.901978 40.389954,169.414978 57.696167,169.414978 57.696167,176.902039 63.276489,177.485657 63.276489,169.414978 63.276489,158.833557 29.758484,158.833557 25.479004,157.929504 22.683105,155.945496 20.814819,152.976135 19.963562,148.431396 19.963562,58.203033 20.452576,53.992340 21.847595,49.374969 23.935425,45.062378 26.393372,41.717834 34.059204,33.576782 40.055786,28.606506 47.780579,24.388458 56.051453,21.570068 63.600952,20.581421 98.737000,20.581421 106.286499,21.570068 114.557190,24.388458 122.282166,28.606506 128.278748,33.576782 135.944580,41.717834 138.402466,45.062378 140.490356,49.374969 141.885315,53.992340 142.374329,58.203033 142.374329,148.431396 141.523132,152.976135 139.654846,155.945496 136.858887,157.929504 132.579468,158.833557 133.560791,169.414978 140.746521,167.897034 146.838257,163.574280 150.908508,157.104797 152.337891,149.473572 152.337891,57.553070 151.659363,51.708313 149.726746,45.311890 146.834290,39.337708 143.422668,34.695160 134.891418,25.634979 127.672668,19.651733 118.383240,14.579376 108.437256,11.190125 99.348938,10.000000 62.989014,10.000000 53.900696,11.190125 43.954712,14.579376 34.665161,19.651733 27.446472,25.634979 18.915283,34.695160 15.503662,39.337708 12.611206,45.311890 10.678589,51.708313 10.000000,57.553070 10.000000,149.473572 11.429321,157.104797 15.499634,163.574280 21.591431,167.897034 28.777161,169.414978 34.809753,169.414978 34.809631,177.485657 35.438354,180.841736 37.228333,183.686829 39.907349,185.587830 43.067444,186.255432 55.018677,186.255432 54.469055,180.329163" />
				<polygon fill="#D9D9D9" stroke="none" fill-opacity="1" points="38.211548,136.804749 37.796997,135.438049 37.658997,134.038025 37.796997,132.637939 38.211548,131.271240 38.902832,129.977905 39.863464,128.807434 41.071716,127.815857 42.487915,127.058899 44.054504,126.583679 45.700195,126.421570 45.700195,120.862793 43.089783,121.119873 40.583740,121.880066 38.281189,123.110901 36.271057,124.760498 34.629272,126.761047 33.414917,129.033020 32.669800,131.489075 32.418823,134.038025 32.669800,136.586914 33.414917,139.042969 34.629272,141.314941 36.271057,143.315491 38.281189,144.965149 40.583740,146.195984 43.089783,146.956116 45.700195,147.213196 48.310303,146.956116 50.816467,146.195984 53.119141,144.965149 55.129150,143.315491 56.770935,141.314941 57.985413,139.042969 58.730408,136.586914 58.981506,134.038025 58.730408,131.489075 53.188660,131.271240 53.603210,132.637939 53.741211,134.038025 53.603210,135.438049 53.188660,136.804749 52.497375,138.098083 51.536865,139.268494 50.328674,140.260071 48.912415,141.017090 47.345703,141.492371 45.700195,141.654419 44.054504,141.492371 42.487915,141.017090 41.071716,140.260071 39.863464,139.268494 38.902832,138.098083" />
				<polygon fill="#D9D9D9" stroke="none" fill-opacity="1" points="63.276489,158.833557 63.276489,169.414978 99.061462,169.414978 104.641724,169.414978 121.947998,169.414978 127.528137,169.414978 133.560791,169.414978 132.579468,158.833557" />
				<polygon fill="#D9D9D9" stroke="none" fill-opacity="1" points="127.708679,141.314941 128.923035,139.042969 129.668152,136.586914 129.919128,134.038025 129.668152,131.489075 128.923035,129.033020 127.708679,126.761047 126.066833,124.760498 124.056763,123.110901 121.754211,121.880066 119.248169,121.119873 116.637756,120.862793 114.027649,121.119873 111.521484,121.880066 109.218811,123.110901 107.208801,124.760498 105.566833,126.761047 104.352539,129.033020 103.607544,131.489075 103.356445,134.038025 103.607544,136.586914 104.352539,139.042969 105.566833,141.314941 107.208801,143.315491 109.218811,144.965149 111.521484,146.195984 114.027649,146.956116 114.992249,141.492371 113.425537,141.017090 112.009277,140.260071 110.801025,139.268494 109.840576,138.098083 109.149170,136.804749 108.734680,135.438049 108.596741,134.038025 108.734680,132.637939 109.149170,131.271240 109.840576,129.977905 110.801025,128.807434 112.009277,127.815857 113.425537,127.058899 114.992249,126.583679 116.637756,126.421570 118.283447,126.583679 119.849976,127.058899 121.266235,127.815857 122.474487,128.807434 123.435059,129.977905 124.126404,131.271240 124.540955,132.637939 127.959106,136.203918 124.056763,144.965149 126.066833,143.315491" />
				<polygon fill="#D9D9D9" stroke="none" fill-opacity="1" points="119.248169,146.956116 121.754211,146.195984 124.056763,144.965149 127.959106,136.203918 124.540955,132.637939 124.678955,134.038025 124.540955,135.438049 124.126404,136.804749 123.435059,138.098083 122.474487,139.268494 121.266235,140.260071 119.849976,141.017090 118.283447,141.492371 116.637756,141.654419 114.992249,141.492371 114.027649,146.956116 116.637756,147.213196" />
				<polygon fill="#D9D9D9" stroke="none" fill-opacity="1" points="101.480042,183.686829 104.159119,185.587830 107.319275,186.255432 119.270508,186.255432 122.430603,185.587830 125.109558,183.686829 126.899597,180.841736 127.528320,177.485657 127.528137,169.414978 121.947998,169.414978 121.947998,176.901978 121.643066,178.529358 121.086426,179.414246 120.253296,180.005432 118.720886,180.329163 107.868896,180.329163 106.336487,180.005432 105.503174,179.414246 104.946533,178.529358 104.641724,176.902039 104.641724,169.414978 99.061462,169.414978 99.061462,177.485657 99.690002,180.841736" />
				<polygon fill="#D9D9D9" stroke="none" fill-opacity="1" points="40.320557,99.275085 40.320557,67.038666 40.625366,65.411255 41.182129,64.526428 42.015259,63.935211 43.547668,63.611481 118.790222,63.611481 120.322632,63.935211 121.155823,64.526428 121.712585,65.411255 122.017395,67.038666 122.017395,99.275085 121.712585,100.902527 121.155823,101.787292 120.322632,102.378540 118.790222,102.702271 119.339844,108.628479 122.499878,107.960999 125.178955,106.059937 126.968994,103.214783 127.597656,99.858765 127.597656,66.454987 126.968994,63.098938 125.178955,60.253815 122.499878,58.352783 119.339844,57.685211 42.997925,57.685211 39.838074,58.352783 37.158997,60.253815 35.368958,63.098938 34.740234,66.454987 34.740234,99.858765 35.368958,103.214783 37.158997,106.059937 39.838074,107.960999 42.997925,108.628479 102.662048,108.628479 102.324829,102.702271 80.806946,102.702271 54.958740,79.634918 53.545410,79.175659 52.163208,79.878296 50.576965,81.655731 50.035583,83.108673 50.652039,84.460785 71.092468,102.702271 43.547668,102.702271 42.015259,102.378540 41.182129,101.787292 40.625366,100.902527" />
				<polygon fill="#D9D9D9" stroke="none" fill-opacity="1" points="48.225891,44.677704 48.789307,46.122284 50.149597,46.720612 112.188171,46.720612 113.548462,46.122284 114.112061,44.677704 114.112061,42.295410 113.548462,40.850861 112.188171,40.252441 50.149597,40.252441 48.789307,40.850861 48.225891,42.295410" />
			</g>
		</g>
	</g>
</svg>
