<?xml version="1.0" encoding="UTF-8"?>
<!-- Generator: Blender, SVG Export for Grease Pencil - v1.0 -->
<!DOCTYPE svg PUBLIC "-//W3C//DTD SVG 1.1//EN" "http://www.w3.org/Graphics/SVG/1.1/DTD/svg11.dtd">
<svg version="1.0" x="0px" y="0px" xmlns="http://www.w3.org/2000/svg" width="202px" height="192px" viewBox="0 0 202 192">
	<g id="blender_frame_164">
		<g id="blender_object_GPencil.005">
			<!--Layer: subway_002_Fills-->
			<g id="subway_002_Fills">
				<polygon fill="#D9D9D9" stroke="none" fill-opacity="1" points="150.716248,71.961426 150.411438,73.588806 149.854797,74.473633 149.021545,75.064880 147.489136,75.388611 104.072021,75.388611 104.072021,59.940430 142.456848,59.940430 142.456848,54.014160 54.755249,54.014160 51.595093,54.681763 48.916138,56.582764 47.126038,59.427917 46.497437,62.783936 46.497437,72.545105 52.077698,71.961426 52.077698,63.367615 52.382507,61.740234 52.939209,60.855347 53.772461,60.264160 55.304871,59.940430 98.722046,59.940430 98.722046,75.388611 55.304871,75.388611 54.755249,81.314819 148.038879,81.314819 151.198853,80.647278 153.877991,78.746216 155.667969,75.901123 156.296570,72.545105 156.296570,62.783936 155.667969,59.427917 150.411438,61.740234 150.716248,63.367615" />
				<polygon fill="#D9D9D9" stroke="none" fill-opacity="1" points="40.191711,58.203003 40.680542,53.992310 42.075684,49.375000 32.839233,45.311890 30.906677,51.708313 30.228027,57.553101 30.228027,129.620544 40.191711,128.578369 40.191711,91.812073 101.397034,101.338196 162.602356,91.812073 162.602356,128.578369 161.751099,133.123169 159.882935,136.092468 157.086853,138.076538 152.807434,138.980530 49.986511,138.980530 45.707153,138.076538 42.911133,136.092468 41.042908,133.123169 31.657349,137.251770 35.727783,143.721252 41.819458,148.044006 49.005188,149.561951 153.788879,149.561951 160.974487,148.044006 167.066284,143.721252 171.136597,137.251770 172.565918,129.620544 172.565918,57.553101 171.887329,51.708313 169.954712,45.311890 167.062378,39.337708 163.650635,34.695190 155.119446,25.635010 147.900635,19.651733 138.611206,14.579407 128.665222,11.190186 119.576904,10.000000 118.965027,20.581421 126.514526,21.570068 134.785278,24.388550 142.510254,28.606506 148.506897,33.576782 156.172668,41.717773 158.630432,45.062378 160.718323,49.375000 162.113464,53.992310 162.602356,58.203003 162.602356,85.620728 101.397034,95.146851 40.191711,85.620728" />
				<polygon fill="#D9D9D9" stroke="none" fill-opacity="1" points="64.663452,131.996887 66.966125,130.766052 65.383850,125.069458 64.175537,126.061096 62.759399,126.818054" />
				<polygon fill="#D9D9D9" stroke="none" fill-opacity="1" points="20.210571,168.875549 10.616516,177.437500 10.000000,178.789612 10.541504,180.242554 12.127808,182.020020 13.510010,182.722656 14.923157,182.263367 19.236816,178.413818 183.557190,178.413818 187.870789,182.263367 189.284119,182.722656 190.666321,182.020020 192.252441,180.242554 192.793945,178.789612 192.177429,177.437500 176.221802,163.198425 171.594788,167.738525 178.194458,173.628052 24.599548,173.628052" />
				<polygon fill="#D9D9D9" stroke="none" fill-opacity="1" points="149.854797,60.855347 150.411438,61.740234 155.667969,59.427917 153.877991,56.582764 151.198853,54.681763 148.038879,54.014160 142.456848,54.014160 142.456848,59.940430 147.489136,59.940430 149.021545,60.264160" />
				<polygon fill="#D9D9D9" stroke="none" fill-opacity="1" points="51.595093,80.647278 54.755249,81.314819 55.304871,75.388611 53.772461,75.064880 52.939209,74.473633 52.382507,73.588806 52.077698,71.961426 46.497437,72.545105 47.126038,75.901123 48.916138,78.746216" />
				<polygon fill="#D9D9D9" stroke="none" fill-opacity="1" points="41.042908,133.123169 40.191711,128.578369 30.228027,129.620544 31.657349,137.251770" />
				<polygon fill="#D9D9D9" stroke="none" fill-opacity="1" points="132.175964,127.115845 133.817810,129.116455 135.827942,130.766052 138.130615,131.996887 140.636658,132.757080 143.246887,133.014160 143.246887,127.455322 141.601196,127.293274 140.034668,126.818054 138.618408,126.061096 137.410156,125.069458 136.449585,123.899048 135.758240,122.605713 135.343689,121.239014 135.205872,119.838928 135.343689,118.438843 135.758240,117.072144 136.449585,115.778870 137.410156,114.608398 138.618408,113.616821 140.034668,112.859863 141.601196,112.384583 143.246887,112.222534 144.892578,112.384583 146.459106,112.859863 147.875244,113.616821 149.083618,114.608398 150.044189,115.778870 150.735352,117.072144 151.150085,118.438843 151.287903,119.838928 151.150085,121.239014 150.735352,122.605713 150.044189,123.899048 149.083618,125.069458 152.675964,129.116455 154.317810,127.115845 155.532288,124.843872 156.277161,122.387817 156.528381,119.838928 156.277161,117.290039 155.532288,114.833984 154.317810,112.562012 152.675964,110.561401 150.666016,108.911804 148.363159,107.681030 145.857117,106.920776 143.246887,106.663696 140.636658,106.920776 138.130615,107.681030 135.827942,108.911804 133.817810,110.561401 132.175964,112.562012 130.961670,114.833984 130.216492,117.290039 129.965576,119.838928 130.216492,122.387817 130.961670,124.843872" />
				<polygon fill="#D9D9D9" stroke="none" fill-opacity="1" points="42.075684,49.375000 44.163574,45.062378 46.621399,41.717773 54.287170,33.576782 60.283752,28.606506 68.008667,24.388550 76.279419,21.570068 83.828979,20.581421 118.965027,20.581421 119.576904,10.000000 83.217041,10.000000 74.128784,11.190186 64.182861,14.579407 54.893311,19.651733 47.674561,25.635010 39.143311,34.695190 35.731567,39.337708 32.839233,45.311890" />
				<polygon fill="#D9D9D9" stroke="none" fill-opacity="1" points="66.344421,115.778870 67.035706,117.072144 67.450256,118.438843 67.588135,119.838928 67.450256,121.239014 67.035706,122.605713 66.344421,123.899048 65.383850,125.069458 66.966125,130.766052 68.976135,129.116455 70.618042,127.115845 71.832458,124.843872 72.577454,122.387817 72.828552,119.838928 72.577454,117.290039 71.832458,114.833984 70.618042,112.562012 68.976135,110.561401 66.966125,108.911804 64.663452,107.681030 62.157410,106.920776 59.547119,106.663696 56.936829,106.920776 54.430786,107.681030 52.128113,108.911804 50.118042,110.561401 48.476257,112.562012 47.261902,114.833984 46.516724,117.290039 46.265808,119.838928 46.516724,122.387817 47.261902,124.843872 48.476257,127.115845 50.118042,129.116455 52.128113,130.766052 54.430786,131.996887 56.936829,132.757080 59.547119,133.014160 62.157410,132.757080 64.663452,131.996887 62.759399,126.818054 61.192749,127.293274 59.547119,127.455322 57.901489,127.293274 56.334839,126.818054 54.918701,126.061096 53.710449,125.069458 52.749817,123.899048 52.058594,122.605713 51.643921,121.239014 51.506104,119.838928 51.643921,118.438843 52.058594,117.072144 52.749817,115.778870 53.710449,114.608398 54.918701,113.616821 56.334839,112.859863 57.901489,112.384583 59.547119,112.222534 61.192749,112.384583 62.759399,112.859863 64.175537,113.616821 65.383850,114.608398" />
				<polygon fill="#D9D9D9" stroke="none" fill-opacity="1" points="20.210571,168.875549 24.599548,173.628052 31.199097,167.738525 171.594788,167.738525 176.221802,163.198425 166.171326,154.229126 159.632507,157.063171 166.232056,162.952698 36.561890,162.952698 43.161438,157.063171 36.622681,154.229126" />
				<polygon fill="#D9D9D9" stroke="none" fill-opacity="1" points="112.748596,36.882690 90.045410,36.882690 88.824341,37.419800 88.318604,38.716553 88.318604,40.975037 88.824341,42.271790 90.045410,42.808960 112.748596,42.808960 113.969666,42.271790 114.475403,40.975037 114.475403,38.716553 113.969666,37.419800" />
				<polygon fill="#D9D9D9" stroke="none" fill-opacity="1" points="145.857117,132.757080 148.363159,131.996887 150.666016,130.766052 152.675964,129.116455 149.083618,125.069458 147.875244,126.061096 146.459106,126.818054 144.892578,127.293274 143.246887,127.455322 143.246887,133.014160" />
			</g>
		</g>
	</g>
</svg>
