<?xml version="1.0" encoding="UTF-8"?>
<!-- Generator: Blender, SVG Export for Grease Pencil - v1.0 -->
<!DOCTYPE svg PUBLIC "-//W3C//DTD SVG 1.1//EN" "http://www.w3.org/Graphics/SVG/1.1/DTD/svg11.dtd">
<svg version="1.0" x="0px" y="0px" xmlns="http://www.w3.org/2000/svg" width="107px" height="96px" viewBox="0 0 107 96">
	<g id="blender_frame_164">
		<g id="blender_object_GPencil.017">
			<!--Layer: subway_002_Fills-->
			<g id="subway_002_Fills">
				<polygon fill="#D9D9D9" stroke="none" fill-opacity="1" points="72.216797,37.395813 72.082031,38.115387 71.835938,38.506592 71.467529,38.767975 70.789917,38.911133 51.593262,38.911133 51.593262,32.080811 68.564941,32.080811 68.564941,29.460602 29.788208,29.460602 28.390991,29.755707 27.206421,30.596252 26.415039,31.854218 26.137207,33.338043 26.137207,37.653900 28.604370,37.395813 28.604370,33.596130 28.739136,32.876617 28.985352,32.485352 29.353638,32.223969 30.031250,32.080811 49.227783,32.080811 49.227783,38.911133 30.031250,38.911133 29.788208,41.531372 71.032959,41.531372 72.430176,41.236237 73.614746,40.395691 74.406128,39.137756 74.684082,37.653900 74.684082,33.338043 74.406128,31.854218 72.082031,32.876617 72.216797,33.596130" />
				<polygon fill="#D9D9D9" stroke="none" fill-opacity="1" points="23.348999,31.312653 23.565186,29.450928 24.182007,27.409363 20.098145,25.612915 19.243774,28.441040 18.943726,31.025269 18.943726,62.889435 23.348999,62.428650 23.348999,46.172699 50.410645,50.384583 77.472046,46.172699 77.472046,62.428650 77.095825,64.438080 76.269775,65.750946 75.033447,66.628204 73.141357,67.027863 27.679688,67.027863 25.787598,66.628204 24.551392,65.750946 23.725464,64.438080 19.575684,66.263550 21.375366,69.123962 24.068726,71.035248 27.245850,71.706390 73.575195,71.706390 76.752441,71.035248 79.445923,69.123962 81.245483,66.263550 81.877441,62.889435 81.877441,31.025269 81.577515,28.441040 80.722900,25.612915 79.444092,22.971497 77.935669,20.918823 74.163574,16.912933 70.971924,14.267487 66.864624,12.024719 62.467041,10.526215 58.448730,10.000000 58.178101,14.678497 61.516113,15.115662 65.172974,16.361786 68.588501,18.226715 71.239868,20.424286 74.629272,24.023804 75.715942,25.502563 76.639160,27.409363 77.255981,29.450928 77.472046,31.312653 77.472046,43.435181 50.410645,47.647125 23.348999,43.435181" />
				<polygon fill="#D9D9D9" stroke="none" fill-opacity="1" points="34.169067,63.940125 35.187256,63.395905 34.487549,60.877197 33.953369,61.315643 33.327148,61.650330" />
				<polygon fill="#D9D9D9" stroke="none" fill-opacity="1" points="14.514648,80.245789 10.272583,84.031372 10.000000,84.629211 10.239502,85.271637 10.940796,86.057495 11.551880,86.368195 12.176758,86.165100 14.083984,84.463074 86.737183,84.463074 88.644409,86.165100 89.269287,86.368195 89.880371,86.057495 90.581665,85.271637 90.821045,84.629211 90.548584,84.031372 83.493896,77.735657 81.448120,79.743042 84.366089,82.347076 16.455078,82.347076" />
				<polygon fill="#D9D9D9" stroke="none" fill-opacity="1" points="71.835938,32.485352 72.082031,32.876617 74.406128,31.854218 73.614746,30.596252 72.430176,29.755707 71.032959,29.460602 68.564941,29.460602 68.564941,32.080811 70.789917,32.080811 71.467529,32.223969" />
				<polygon fill="#D9D9D9" stroke="none" fill-opacity="1" points="28.390991,41.236237 29.788208,41.531372 30.031250,38.911133 29.353638,38.767975 28.985352,38.506592 28.739136,38.115387 28.604370,37.395813 26.137207,37.653900 26.415039,39.137756 27.206421,40.395691" />
				<polygon fill="#D9D9D9" stroke="none" fill-opacity="1" points="23.725464,64.438080 23.348999,62.428650 18.943726,62.889435 19.575684,66.263550" />
				<polygon fill="#D9D9D9" stroke="none" fill-opacity="1" points="64.019409,61.781982 64.745239,62.666534 65.633911,63.395905 66.652100,63.940125 67.760132,64.276215 68.914185,64.389893 68.914185,61.932098 68.186646,61.860443 67.493896,61.650330 66.867798,61.315643 66.333496,60.877197 65.908813,60.359680 65.603149,59.787872 65.419922,59.183594 65.358887,58.564575 65.419922,57.945557 65.603149,57.341248 65.908813,56.769440 66.333496,56.251892 66.867798,55.813477 67.493896,55.478790 68.186646,55.268677 68.914185,55.196991 69.641846,55.268677 70.334473,55.478790 70.960693,55.813477 71.494995,56.251892 71.919556,56.769440 72.225342,57.341248 72.408569,57.945557 72.469604,58.564575 72.408569,59.183594 72.225342,59.787872 71.919556,60.359680 71.494995,60.877197 73.083252,62.666534 73.809082,61.781982 74.346069,60.777466 74.675537,59.691559 74.786499,58.564575 74.675537,57.437592 74.346069,56.351654 73.809082,55.347137 73.083252,54.462585 72.194458,53.733215 71.176392,53.188995 70.068359,52.852905 68.914185,52.739227 67.760132,52.852905 66.652100,53.188995 65.633911,53.733215 64.745239,54.462585 64.019409,55.347137 63.482300,56.351654 63.152954,57.437592 63.041992,58.564575 63.152954,59.691559 63.482300,60.777466" />
				<polygon fill="#D9D9D9" stroke="none" fill-opacity="1" points="24.182007,27.409363 25.105103,25.502563 26.191895,24.023804 29.581299,20.424286 32.232666,18.226715 35.648071,16.361786 39.304932,15.115662 42.642944,14.678497 58.178101,14.678497 58.448730,10.000000 42.372437,10.000000 38.354126,10.526215 33.956543,12.024719 29.849243,14.267487 26.657471,16.912933 22.885498,20.918823 21.377075,22.971497 20.098145,25.612915" />
				<polygon fill="#D9D9D9" stroke="none" fill-opacity="1" points="34.912231,56.769440 35.218018,57.341248 35.401245,57.945557 35.462280,58.564575 35.401245,59.183594 35.218018,59.787872 34.912231,60.359680 34.487549,60.877197 35.187256,63.395905 36.075928,62.666534 36.801880,61.781982 37.338867,60.777466 37.668213,59.691559 37.779297,58.564575 37.668213,57.437592 37.338867,56.351654 36.801880,55.347137 36.075928,54.462585 35.187256,53.733215 34.169067,53.188995 33.061157,52.852905 31.906860,52.739227 30.752808,52.852905 29.644775,53.188995 28.626709,53.733215 27.737915,54.462585 27.011963,55.347137 26.475098,56.351654 26.145630,57.437592 26.034668,58.564575 26.145630,59.691559 26.475098,60.777466 27.011963,61.781982 27.737915,62.666534 28.626709,63.395905 29.644775,63.940125 30.752808,64.276215 31.906860,64.389893 33.061157,64.276215 34.169067,63.940125 33.327148,61.650330 32.634521,61.860443 31.906860,61.932098 31.179321,61.860443 30.486572,61.650330 29.860474,61.315643 29.326294,60.877197 28.901611,60.359680 28.595947,59.787872 28.412598,59.183594 28.351685,58.564575 28.412598,57.945557 28.595947,57.341248 28.901611,56.769440 29.326294,56.251892 29.860474,55.813477 30.486572,55.478790 31.179321,55.268677 31.906860,55.196991 32.634521,55.268677 33.327148,55.478790 33.953369,55.813477 34.487549,56.251892" />
				<polygon fill="#D9D9D9" stroke="none" fill-opacity="1" points="14.514648,80.245789 16.455078,82.347076 19.373047,79.743042 81.448120,79.743042 83.493896,77.735657 79.050171,73.769958 76.159058,75.023010 79.077026,77.627045 21.744141,77.627045 24.662109,75.023010 21.770996,73.769958" />
				<polygon fill="#D9D9D9" stroke="none" fill-opacity="1" points="55.429565,21.885986 45.391602,21.885986 44.851685,22.123505 44.628052,22.696838 44.628052,23.695435 44.851685,24.268768 45.391602,24.506287 55.429565,24.506287 55.969482,24.268768 56.193115,23.695435 56.193115,22.696838 55.969482,22.123505" />
				<polygon fill="#D9D9D9" stroke="none" fill-opacity="1" points="70.068359,64.276215 71.176392,63.940125 72.194458,63.395905 73.083252,62.666534 71.494995,60.877197 70.960693,61.315643 70.334473,61.650330 69.641846,61.860443 68.914185,61.932098 68.914185,64.389893" />
			</g>
			<!--Layer: Circle_007_Fills-->
			<g id="Circle_007_Fills">
				<polygon fill="#D9D9D9" stroke="none" fill-opacity="1" points="86.385986,21.518433 86.859863,20.882263 87.375610,20.182404 87.912598,19.449371 88.449585,18.713654 88.966064,18.005737 89.441040,17.356171 89.853760,16.795380 90.188477,16.346375 90.450562,16.002228 90.651001,15.748474 90.800293,15.570557 90.909302,15.454193 90.988403,15.384796 91.048584,15.347961 91.100342,15.329163 91.152588,15.316498 91.206543,15.307404 91.261719,15.301941 91.317505,15.300110 91.373413,15.301941 91.428345,15.307404 91.482422,15.316498 91.534790,15.329163 91.586548,15.347961 91.646729,15.384796 91.725830,15.454193 91.834839,15.570557 91.984009,15.748474 92.184448,16.002228 92.446777,16.346375 92.781372,16.795380 93.194092,17.356171 93.669067,18.005737 94.185425,18.713654 94.722534,19.449371 95.259399,20.182404 95.775146,20.882263 96.249146,21.518433 96.674194,22.081268 96.992920,22.484680 97.251831,22.794373 97.446899,22.999725 97.587769,23.110962 97.684570,23.138245 97.746948,23.091736 97.784790,22.981598 97.808716,22.825165 97.824707,22.610870 97.836792,22.369568 97.843872,22.103394 97.846313,21.821320 97.843872,21.532623 97.836792,21.246368 97.824707,20.971771 97.808716,20.713013 97.784790,20.489746 97.746948,20.274261 97.684570,20.054230 97.587769,19.812500 97.446899,19.531830 97.251831,19.194977 96.992920,18.784698 96.674194,18.301758 96.249146,17.682617 95.775146,17.002014 95.259399,16.270355 94.722534,15.515961 94.185425,14.767303 93.669067,14.052734 93.194092,13.400726 92.781372,12.839600 92.446777,12.390594 92.184448,12.046417 91.984009,11.792633 91.834839,11.614777 91.725830,11.498413 91.646729,11.429016 91.586548,11.392181 91.534790,11.373383 91.482422,11.360718 91.428345,11.351624 91.373413,11.346161 91.317505,11.344299 91.261719,11.346161 91.206543,11.351624 91.152588,11.360718 91.100342,11.373383 91.048584,11.392181 90.988403,11.429016 90.909302,11.498413 90.800293,11.614777 90.651001,11.792633 90.450562,12.046417 90.188477,12.390594 89.853760,12.839600 89.441040,13.400726 88.966064,14.052734 88.449585,14.767303 87.912598,15.515961 87.375610,16.270355 86.859863,17.002014 86.385986,17.682617 85.960938,18.301758 85.642212,18.784698 85.383301,19.194977 85.188232,19.531830 85.047241,19.812500 84.950562,20.054230 84.888184,20.274261 84.850342,20.489746 84.826294,20.713013 84.810303,20.971771 84.798340,21.246368 84.791138,21.532623 84.788696,21.821320 84.791138,22.103394 84.798340,22.369568 84.810303,22.610870 84.826294,22.825165 84.850342,22.981598 84.888184,23.091736 84.950562,23.138245 85.047363,23.110962 85.188232,22.999725 85.383301,22.794373" />
				<polygon fill="#D9D9D9" stroke="none" fill-opacity="1" points="84.850342,29.298035 84.888184,29.408203 84.950562,29.454742 85.047363,29.427460 85.188232,29.316223 85.383301,29.110840 85.642212,28.801147 85.960938,28.397736 86.385986,27.834930 86.859863,27.198700 87.375610,26.498871 87.912598,25.765839 88.449585,25.030151 88.966064,24.322235 89.441040,23.672668 89.853760,23.111877 90.188477,22.662872 90.450562,22.318695 90.651001,22.064911 90.800293,21.887054 90.909302,21.770660 90.988403,21.701263 91.048584,21.664398 91.100342,21.645660 91.152588,21.632935 91.206543,21.623840 91.261719,21.618408 91.317505,21.616577 91.373291,21.618408 91.428345,21.623840 91.482422,21.632935 91.534790,21.645660 91.586548,21.664398 91.646729,21.701263 91.725830,21.770660 91.834839,21.887054 91.984009,22.064911 92.184448,22.318695 92.446777,22.662872 92.781372,23.111877 93.194092,23.672668 93.669067,24.322235 94.185425,25.030151 94.722534,25.765839 95.259399,26.498871 95.775146,27.198700 96.249146,27.834930 96.674194,28.397736 96.992920,28.801147 97.251831,29.110840 97.446899,29.316223 97.587769,29.427460 97.684570,29.454742 97.746948,29.408203 97.784790,29.298035 97.808716,29.141632 97.824707,28.927307 97.836792,28.686066 97.843872,28.419830 97.846313,28.137817 97.843872,27.849091 97.836792,27.562836 97.824707,27.288239 97.808716,27.029480 97.784790,26.806213 97.746948,26.590698 97.684570,26.370728 97.587769,26.128998 97.446899,25.848297 97.251831,25.511444 96.992920,25.101166 96.674194,24.618256 96.249146,23.999084 95.775146,23.318512 95.259399,22.586761 94.722534,21.832428 94.185425,21.083801 93.669067,20.369232 93.194092,19.717224 92.781372,19.156067 92.446777,18.707092 92.184448,18.362915 91.984009,18.109131 91.834839,17.931274 91.725830,17.814880 91.646729,17.745483 91.586548,17.708618 91.534790,17.689850 91.482422,17.677155 91.428345,17.668091 91.373291,17.662628 91.317505,17.660797 91.261719,17.662628 91.206543,17.668091 91.152588,17.677155 91.100342,17.689850 91.048584,17.708618 90.988403,17.745483 90.909302,17.814880 90.800293,17.931274 90.651001,18.109131 90.450562,18.362915 90.188477,18.707092 89.853760,19.156067 89.441040,19.717224 88.966064,20.369232 88.449585,21.083801 87.912598,21.832428 87.375610,22.586761 86.859863,23.318512 86.385986,23.999084 85.960938,24.618256 85.642212,25.101166 85.383301,25.511444 85.188232,25.848297 85.047241,26.128998 84.950562,26.370728 84.888184,26.590698 84.850342,26.806213 84.826294,27.029480 84.810303,27.288239 84.798340,27.562836 84.791138,27.849091 84.788696,28.137817 84.791138,28.419830 84.798340,28.686066" />
			</g>
		</g>
	</g>
</svg>
