<?xml version="1.0" encoding="UTF-8"?>
<!-- Generator: Blender, SVG Export for Grease Pencil - v1.0 -->
<!DOCTYPE svg PUBLIC "-//W3C//DTD SVG 1.1//EN" "http://www.w3.org/Graphics/SVG/1.1/DTD/svg11.dtd">
<svg version="1.0" x="0px" y="0px" xmlns="http://www.w3.org/2000/svg" width="162px" height="196px" viewBox="0 0 162 196">
	<g id="blender_frame_164">
		<g id="blender_object_GPencil.003">
			<!--Layer: subway_001_Fills-->
			<g id="subway_001_Fills">
				<polygon fill="#D9D9D9" stroke="none" fill-opacity="1" points="83.779297,52.728333 86.285339,51.968140 88.588013,50.737335 87.005737,45.040741 85.797546,46.032349 84.381287,46.789307 82.814697,47.264557 81.169006,47.426605 81.169006,52.985443" />
				<polygon fill="#D9D9D9" stroke="none" fill-opacity="1" points="89.072205,41.210236 88.657654,42.576996 87.966187,43.870300 87.005737,45.040741 88.588013,50.737335 90.598145,49.087738 92.239929,47.087128 93.454285,44.815186 94.199402,42.359131 94.450378,39.810211 94.199402,37.261322 93.454285,34.805237 92.239929,32.533295 90.598145,30.532654 88.588013,28.883057 86.285339,27.652283 83.779297,26.892090 81.169006,26.635010 78.558777,26.892090 76.052734,27.652283 73.750061,28.883057 71.739929,30.532654 70.098145,32.533295 68.883789,34.805237 68.138672,37.261322 67.887695,39.810211 68.138672,42.359131 68.883789,44.815186 70.098145,47.087128 71.739929,49.087738 73.750061,50.737335 76.052734,51.968140 78.558777,52.728333 81.169006,52.985443 81.169006,47.426605 79.523376,47.264557 77.956787,46.789307 76.540527,46.032349 75.332336,45.040741 74.371704,43.870300 73.680420,42.576996 73.265869,41.210236 73.127991,39.810211 73.265869,38.410156 73.680420,37.043457 74.371704,35.750153 75.332336,34.579681 76.540527,33.588074 77.956787,32.831116 79.523376,32.355896 81.169006,32.193817 82.814697,32.355896 84.381287,32.831116 85.797546,33.588074 87.005737,34.579681 87.966187,35.750153 88.657654,37.043457 89.072205,38.410156 89.210083,39.810211" />
				<polygon fill="#D9D9D9" stroke="none" fill-opacity="1" points="142.374329,58.203033 152.338074,57.553070 151.659363,51.708313 141.885498,53.992340" />
				<polygon fill="#D9D9D9" stroke="none" fill-opacity="1" points="136.652893,182.405945 140.966614,186.255432 142.379822,186.714661 143.762146,186.012024 145.348267,184.234619 145.889771,182.781677 145.273193,181.429504 129.317505,167.190491 124.690613,171.730530 131.290161,177.620117 31.047791,177.620117 25.685059,182.405945" />
				<polygon fill="#D9D9D9" stroke="none" fill-opacity="1" points="132.201416,67.038666 132.201416,95.456116 137.781738,96.039734 137.781738,66.454987" />
				<polygon fill="#D9D9D9" stroke="none" fill-opacity="1" points="115.050354,57.685211 111.890198,58.352783 109.211243,60.253815 107.421082,63.098938 106.792480,66.454987 106.792480,96.039734 107.421082,99.395813 109.211243,102.240906 111.890198,104.141907 115.050354,104.809509 129.524048,104.809509 132.684082,104.141907 135.363037,102.240906 137.153198,99.395813 137.781738,96.039734 132.201416,95.456116 131.896667,97.083496 131.339844,97.968323 130.506897,98.559509 128.974426,98.883240 115.599792,98.883240 114.067505,98.559509 113.234375,97.968323 112.677612,97.083496 112.372803,95.456116 112.372803,67.038666 112.677612,65.411255 113.234375,64.526428 114.067505,63.935211 115.599792,63.611481 128.974426,63.611481 130.506897,63.935211 131.339844,64.526428 131.896667,65.411255 132.201416,67.038666 137.781738,66.454987 137.153198,63.098938 135.363037,60.253815 132.684082,58.352783 129.524048,57.685211" />
				<polygon fill="#D9D9D9" stroke="none" fill-opacity="1" points="61.338257,63.098938 60.709717,66.454987 60.709717,123.791321 66.290039,123.207581 66.290039,104.809509 96.048035,104.809509 96.048035,98.883240 66.290039,98.883240 66.290039,67.038666 66.594666,65.411255 67.151611,64.526428 67.984619,63.935211 65.807251,58.352783 63.128296,60.253815" />
				<polygon fill="#D9D9D9" stroke="none" fill-opacity="1" points="152.338074,129.620544 152.338074,57.553070 142.374329,58.203033 142.374329,128.578369 141.523132,133.123108 139.654846,136.092468 136.859009,138.076477 132.579468,138.980530 29.758484,138.980530 25.479065,138.076477 22.683105,136.092468 20.814941,133.123108 19.963562,128.578369 19.963562,58.203033 20.452576,53.992340 21.847595,49.374969 23.935425,45.062378 26.393372,41.717834 34.059204,33.576782 40.055786,28.606506 47.780762,24.388458 56.051453,21.570068 63.601074,20.581421 98.737000,20.581421 106.286621,21.570068 114.557312,24.388458 122.282288,28.606506 128.278870,33.576782 135.944580,41.717834 138.402466,45.062378 140.490356,49.374969 141.885498,53.992340 151.659363,51.708313 149.726868,45.311890 146.834412,39.337708 143.422791,34.695160 134.891418,25.634979 127.672668,19.651733 118.383240,14.579376 108.437256,11.190125 99.348938,10.000000 62.989136,10.000000 53.900696,11.190125 43.954834,14.579376 34.665405,19.651733 27.446472,25.634979 18.915283,34.695160 15.503540,39.337708 12.611206,45.311890 10.678711,51.708313 10.000000,57.553070 10.000000,129.620544 11.429321,137.251770 15.499634,143.721252 21.591431,148.044006 28.777283,149.561951 52.774231,149.561951 17.064758,181.429504 16.448303,182.781677 16.989807,184.234619 18.576050,186.012024 19.958252,186.714661 21.371460,186.255432 25.685059,182.405945 31.047791,177.620117 37.647461,171.730530 124.690613,171.730530 129.317505,167.190491 117.417725,156.570740 112.728271,161.055237 119.327881,166.944763 43.010193,166.944763 49.609680,161.055237 54.972412,156.269470 62.488586,149.561951 99.849365,149.561951 107.365662,156.269470 113.490784,153.066345 109.563843,149.561951 133.560791,149.561951 140.746521,148.044006 146.838257,143.721252 150.908630,137.251770" />
				<polygon fill="#D9D9D9" stroke="none" fill-opacity="1" points="33.363647,63.611481 46.738281,63.611481 47.287720,57.685211 32.814026,57.685211 29.653992,58.352783 26.974915,60.253815 25.184875,63.098938 24.556335,66.454987 24.556335,96.039734 25.184875,99.395813 26.974915,102.240906 29.653992,104.141907 32.814026,104.809509 47.287720,104.809509 50.447876,104.141907 53.126831,102.240906 54.916870,99.395813 55.545593,96.039734 49.965271,95.456116 49.660339,97.083496 49.103699,97.968323 48.270569,98.559509 46.738281,98.883240 33.363647,98.883240 31.831177,98.559509 30.998230,97.968323 30.441284,97.083496 30.136658,95.456116 30.136658,67.038666 30.441284,65.411255 30.998230,64.526428 31.831177,63.935211" />
				<polygon fill="#D9D9D9" stroke="none" fill-opacity="1" points="49.609680,161.055237 112.728271,161.055237 117.417725,156.570740 113.490784,153.066345 107.365662,156.269470 54.972412,156.269470" />
				<polygon fill="#D9D9D9" stroke="none" fill-opacity="1" points="49.660339,65.411255 49.965271,67.038666 49.965271,95.456116 55.545593,96.039734 55.545593,66.454987 54.916870,63.098938 53.126831,60.253815 50.447876,58.352783 47.287720,57.685211 46.738281,63.611481 48.270569,63.935211 49.103699,64.526428" />
				<polygon fill="#D9D9D9" stroke="none" fill-opacity="1" points="93.370667,57.685211 68.967407,57.685211 65.807251,58.352783 67.984619,63.935211 69.517029,63.611481 92.821045,63.611481 94.353455,63.935211 95.186462,64.526428 95.743286,65.411255 96.048035,67.038666 96.048035,98.883240 96.048035,104.809509 96.048035,123.207581 95.743286,124.835022 95.186462,125.719849 94.353455,126.311096 92.821045,126.634827 69.517029,126.634827 67.984619,126.311096 67.151611,125.719849 66.594666,124.835022 66.290039,123.207581 60.709717,123.791321 61.338257,127.147339 63.128296,129.992493 65.807251,131.893494 68.967407,132.561035 93.370667,132.561035 96.530823,131.893494 99.209656,129.992493 100.999817,127.147339 101.628357,123.791321 101.628357,66.454987 100.999817,63.098938 99.209656,60.253815 96.530823,58.352783" />
			</g>
		</g>
	</g>
</svg>
