<?xml version="1.0" encoding="UTF-8"?>
<!-- Generator: Blender, SVG Export for Grease Pencil - v1.0 -->
<!DOCTYPE svg PUBLIC "-//W3C//DTD SVG 1.1//EN" "http://www.w3.org/Graphics/SVG/1.1/DTD/svg11.dtd">
<svg version="1.0" x="0px" y="0px" xmlns="http://www.w3.org/2000/svg" width="188px" height="182px" viewBox="0 0 188 182">
	<g id="blender_frame_164">
		<g id="blender_object_GPencil.003">
			<!--Layer: subway_001_Fills-->
			<g id="subway_001_Fills">
				<polygon fill="#D9D9D9" stroke="none" fill-opacity="1" points="77.642822,49.174561 79.940491,48.477661 82.051575,47.349182 80.600952,42.126404 79.493164,43.035522 78.194702,43.729492 76.758362,44.165283 75.249695,44.313843 75.249695,49.410278" />
				<polygon fill="#D9D9D9" stroke="none" fill-opacity="1" points="82.495544,38.614502 82.115417,39.867554 81.481567,41.053284 80.600952,42.126404 82.051575,47.349182 83.894470,45.836792 85.399780,44.002563 86.513184,41.919556 87.196289,39.667786 87.426331,37.330933 87.196289,34.994019 86.513184,32.742188 85.399780,30.659180 83.894470,28.824951 82.051575,27.312622 79.940491,26.184143 77.642822,25.487183 75.249695,25.251465 72.856506,25.487183 70.558838,26.184143 68.447754,27.312622 66.604858,28.824951 65.099548,30.659180 63.986206,32.742188 63.303040,34.994019 63.072998,37.330933 63.303040,39.667786 63.986206,41.919556 65.099548,44.002563 66.604858,45.836792 68.447754,47.349182 70.558838,48.477661 72.856506,49.174561 75.249695,49.410278 75.249695,44.313843 73.740967,44.165283 72.304626,43.729492 71.006165,43.035522 69.898376,42.126404 69.017761,41.053284 68.383911,39.867554 68.003845,38.614502 67.877380,37.330933 68.003845,36.047241 68.383911,34.794250 69.017761,33.608521 69.898376,32.535400 71.006165,31.626282 72.304626,30.932251 73.740967,30.496582 75.249695,30.347900 76.758362,30.496582 78.194702,30.932251 79.493164,31.626282 80.600952,32.535400 81.481567,33.608521 82.115417,34.794250 82.495544,36.047241 82.621948,37.330933" />
				<polygon fill="#D9D9D9" stroke="none" fill-opacity="1" points="131.364502,54.193970 140.499451,53.598022 139.877258,48.239380 130.916199,50.333496" />
				<polygon fill="#D9D9D9" stroke="none" fill-opacity="1" points="126.118835,168.066650 130.073792,171.596008 131.369446,172.017090 132.636780,171.372864 134.091003,169.743286 134.587524,168.411133 134.022278,167.171509 119.393677,154.116699 115.151489,158.279175 121.202271,163.678894 29.297180,163.678894 24.380493,168.066650" />
				<polygon fill="#D9D9D9" stroke="none" fill-opacity="1" points="122.037659,62.294678 122.037659,88.348633 127.153870,88.883728 127.153870,61.759521" />
				<polygon fill="#D9D9D9" stroke="none" fill-opacity="1" points="106.312988,53.719238 103.415710,54.331238 100.959534,56.074158 99.318298,58.682617 98.742004,61.759521 98.742004,88.883728 99.318298,91.960632 100.959534,94.569092 103.415710,96.312012 106.312988,96.924072 119.582886,96.924072 122.480042,96.312012 124.936340,94.569092 126.577454,91.960632 127.153870,88.883728 122.037659,88.348633 121.758240,89.840637 121.247742,90.651855 120.483948,91.193970 119.078979,91.490723 106.816833,91.490723 105.411926,91.193970 104.648071,90.651855 104.137756,89.840637 103.858215,88.348633 103.858215,62.294678 104.137756,60.802612 104.648071,59.991394 105.411926,59.449341 106.816833,59.152588 119.078979,59.152588 120.483948,59.449341 121.247742,59.991394 121.758240,60.802612 122.037659,62.294678 127.153870,61.759521 126.577454,58.682617 124.936340,56.074158 122.480042,54.331238 119.582886,53.719238" />
				<polygon fill="#D9D9D9" stroke="none" fill-opacity="1" points="57.068359,58.682617 56.491943,61.759521 56.491943,114.327148 61.608154,113.791992 61.608154,96.924072 88.891174,96.924072 88.891174,91.490723 61.608154,91.490723 61.608154,62.294678 61.887573,60.802612 62.398010,59.991394 63.161804,59.449341 61.165588,54.331238 58.709534,56.074158" />
				<polygon fill="#D9D9D9" stroke="none" fill-opacity="1" points="140.499451,119.671509 140.499451,53.598022 131.364502,54.193970 131.364502,118.716064 130.584045,122.882812 128.871155,125.605164 126.307800,127.424194 122.384277,128.253052 28.115112,128.253052 24.191528,127.424194 21.628174,125.605164 19.915283,122.882812 19.134827,118.716064 19.134827,54.193970 19.583130,50.333496 20.862183,46.100098 22.776367,42.146240 25.029846,39.079834 32.058044,31.615906 37.555969,27.059021 44.638306,23.191772 52.221191,20.607788 59.142822,19.701416 91.356506,19.701416 98.278137,20.607788 105.861023,23.191772 112.943420,27.059021 118.441284,31.615906 125.469482,39.079834 127.722961,42.146240 129.637268,46.100098 130.916199,50.333496 139.877258,48.239380 138.105469,42.375000 135.453552,36.897644 132.325684,32.641235 124.503967,24.334656 117.885498,18.849060 109.368774,14.198608 100.250000,11.091187 91.917542,10.000000 58.581787,10.000000 50.249390,11.091187 41.130554,14.198608 32.613831,18.849060 25.995361,24.334656 18.173706,32.641235 15.045776,36.897644 12.393982,42.375000 10.622131,48.239380 10.000000,53.598022 10.000000,119.671509 11.310364,126.668091 15.042236,132.599487 20.627319,136.562622 27.215393,137.954346 49.216553,137.954346 16.477112,167.171509 15.911926,168.411133 16.408325,169.743286 17.862671,171.372864 19.129883,172.017090 20.425537,171.596008 24.380493,168.066650 29.297180,163.678894 35.347839,158.279175 115.151489,158.279175 119.393677,154.116699 108.483521,144.380249 104.184143,148.491699 110.234802,153.891479 40.264526,153.891479 46.315308,148.491699 51.231873,144.104004 58.122986,137.954346 92.376465,137.954346 99.267456,144.104004 104.883118,141.167358 101.282898,137.954346 123.283936,137.954346 129.872009,136.562622 135.457214,132.599487 139.188965,126.668091" />
				<polygon fill="#D9D9D9" stroke="none" fill-opacity="1" points="31.420349,59.152588 43.682495,59.152588 44.186340,53.719238 30.916443,53.719238 28.019287,54.331238 25.562988,56.074158 23.921875,58.682617 23.345520,61.759521 23.345520,88.883728 23.921875,91.960632 25.562988,94.569092 28.019287,96.312012 30.916443,96.924072 44.186340,96.924072 47.083618,96.312012 49.539856,94.569092 51.181030,91.960632 51.757324,88.883728 46.641235,88.348633 46.361694,89.840637 45.851257,90.651855 45.087402,91.193970 43.682495,91.490723 31.420349,91.490723 30.015381,91.193970 29.251587,90.651855 28.741089,89.840637 28.461670,88.348633 28.461670,62.294678 28.741089,60.802612 29.251587,59.991394 30.015381,59.449341" />
				<polygon fill="#D9D9D9" stroke="none" fill-opacity="1" points="46.315308,148.491699 104.184143,148.491699 108.483521,144.380249 104.883118,141.167358 99.267456,144.104004 51.231873,144.104004" />
				<polygon fill="#D9D9D9" stroke="none" fill-opacity="1" points="46.361694,60.802612 46.641235,62.294678 46.641235,88.348633 51.757324,88.883728 51.757324,61.759521 51.181030,58.682617 49.539856,56.074158 47.083618,54.331238 44.186340,53.719238 43.682495,59.152588 45.087402,59.449341 45.851257,59.991394" />
				<polygon fill="#D9D9D9" stroke="none" fill-opacity="1" points="86.436523,53.719238 64.062927,53.719238 61.165588,54.331238 63.161804,59.449341 64.566772,59.152588 85.932556,59.152588 87.337524,59.449341 88.101318,59.991394 88.611816,60.802612 88.891174,62.294678 88.891174,91.490723 88.891174,96.924072 88.891174,113.791992 88.611816,115.284058 88.101318,116.095276 87.337524,116.637329 85.932556,116.934082 64.566772,116.934082 63.161804,116.637329 62.398010,116.095276 61.887573,115.284058 61.608154,113.791992 56.491943,114.327148 57.068359,117.404053 58.709534,120.012512 61.165588,121.755432 64.062927,122.367432 86.436523,122.367432 89.333740,121.755432 91.789856,120.012512 93.431091,117.404053 94.007385,114.327148 94.007385,61.759521 93.431091,58.682617 91.789856,56.074158 89.333740,54.331238" />
			</g>
			<!--Layer: Circle_007_Fills-->
			<g id="Circle_007_Fills">
				<polygon fill="#D9D9D9" stroke="none" fill-opacity="1" points="153.595642,39.150269 154.476990,37.983154 155.459717,36.663940 156.529358,35.212708 157.642578,33.692749 158.756226,32.167114 159.827271,30.699219 160.812012,29.352295 161.667664,28.189392 162.361755,27.258423 162.905518,26.544739 163.321167,26.018494 163.630859,25.649658 163.856567,25.408325 164.020752,25.264404 164.145447,25.187988 164.252808,25.149170 164.361145,25.122803 164.473145,25.103943 164.587585,25.092651 164.703125,25.088867 164.818848,25.092651 164.933167,25.103943 165.045166,25.122803 165.153564,25.149170 165.260864,25.187988 165.385620,25.264404 165.549866,25.408325 165.775635,25.649658 166.085266,26.018494 166.500854,26.544739 167.044556,27.258423 167.738647,28.189392 168.594299,29.352295 169.579224,30.699219 170.650146,32.167114 171.763855,33.692749 172.876953,35.212708 173.946716,36.663940 174.929321,37.983154 175.810791,39.150269 176.471741,39.986694 177.008545,40.628906 177.412842,41.054810 177.705139,41.285522 177.905640,41.342041 178.035034,41.245544 178.113525,41.017090 178.163452,40.692749 178.196533,40.248352 178.221375,39.748169 178.236328,39.196045 178.241333,38.611206 178.236328,38.012573 178.221375,37.419006 178.196533,36.849609 178.163452,36.312988 178.113525,35.850098 178.035034,35.403198 177.905640,34.947021 177.705139,34.445679 177.412842,33.863647 177.008545,33.165161 176.471741,32.314453 175.810791,31.313049 174.929321,30.029175 173.946716,28.617920 172.876953,27.100647 171.763855,25.536377 170.650146,23.984009 169.579224,22.502319 168.594299,21.150269 167.738647,19.986694 167.044556,19.055664 166.500854,18.342041 166.085266,17.815796 165.775635,17.447021 165.549866,17.205627 165.385620,17.061707 165.260864,16.985291 165.153564,16.946411 165.045166,16.920044 164.933167,16.901184 164.818848,16.889893 164.703125,16.886108 164.587585,16.889893 164.473145,16.901184 164.361145,16.920044 164.252808,16.946411 164.145447,16.985291 164.020752,17.061707 163.856567,17.205627 163.630859,17.447021 163.321167,17.815796 162.905518,18.342041 162.361755,19.055664 161.667664,19.986694 160.812012,21.150269 159.827271,22.502319 158.756226,23.984009 157.642578,25.536377 156.529358,27.100647 155.459717,28.617920 154.476990,30.029175 153.595642,31.313049 152.934753,32.314453 152.397827,33.165161 151.993652,33.863647 151.701294,34.445679 151.500732,34.947021 151.371399,35.403198 151.292786,35.850098 151.242920,36.312988 151.209839,36.849609 151.184937,37.419006 151.169983,38.012573 151.164978,38.611206 151.169983,39.196045 151.184937,39.748169 151.209839,40.248352 151.242920,40.692749 151.292786,41.017090 151.371399,41.245544 151.500732,41.342041 151.701294,41.285522 151.993652,41.054810 152.397827,40.628906 152.934753,39.986694" />
				<polygon fill="#D9D9D9" stroke="none" fill-opacity="1" points="151.242920,53.790527 151.292786,54.114929 151.371399,54.343384 151.500732,54.439819 151.701294,54.383301 151.993652,54.152588 152.397827,53.726746 152.934753,53.084595 153.595642,52.248047 154.476990,51.080994 155.459717,49.761780 156.529358,48.310547 157.642578,46.790527 158.756226,45.265015 159.827271,43.797119 160.812012,42.450073 161.667664,41.287231 162.361755,40.356201 162.905518,39.642578 163.321167,39.116333 163.630859,38.747559 163.856567,38.506104 164.020752,38.362244 164.145447,38.285889 164.252808,38.246948 164.361145,38.220581 164.473145,38.201782 164.587585,38.190430 164.703125,38.186646 164.818848,38.190430 164.933167,38.201782 165.045166,38.220581 165.153564,38.246948 165.260864,38.285889 165.385620,38.362244 165.549866,38.506104 165.775635,38.747559 166.085266,39.116333 166.500854,39.642578 167.044556,40.356201 167.738647,41.287231 168.594299,42.450073 169.579224,43.797119 170.650146,45.265015 171.763855,46.790527 172.876953,48.310547 173.946716,49.761780 174.929321,51.080994 175.810791,52.248047 176.471741,53.084595 177.008545,53.726746 177.412842,54.152588 177.705139,54.383301 177.905640,54.439819 178.035034,54.343384 178.113525,54.114929 178.163452,53.790527 178.196533,53.346191 178.221375,52.845947 178.236328,52.293945 178.241333,51.709045 178.236328,51.110352 178.221375,50.516846 178.196533,49.947388 178.163452,49.410828 178.113525,48.947876 178.035034,48.500977 177.905640,48.044800 177.705139,47.543579 177.412842,46.961548 177.008545,46.263000 176.471741,45.412231 175.810791,44.410889 174.929321,43.127075 173.946716,41.715698 172.876953,40.198486 171.763855,38.634216 170.650146,37.081848 169.579224,35.600159 168.594299,34.248047 167.738647,33.084534 167.044556,32.153503 166.500854,31.439819 166.085266,30.913635 165.775635,30.544800 165.549866,30.303467 165.385620,30.159546 165.260864,30.083130 165.153564,30.044250 165.045166,30.017822 164.933167,29.999023 164.818848,29.987732 164.703125,29.984009 164.587585,29.987732 164.473145,29.999023 164.361145,30.017822 164.252808,30.044250 164.145447,30.083130 164.020752,30.159546 163.856567,30.303467 163.630859,30.544800 163.321167,30.913635 162.905518,31.439819 162.361755,32.153503 161.667664,33.084534 160.812012,34.248047 159.827271,35.600159 158.756226,37.081848 157.642578,38.634216 156.529358,40.198486 155.459717,41.715698 154.476990,43.127075 153.595642,44.410889 152.934753,45.412231 152.397827,46.263000 151.993652,46.961548 151.701294,47.543579 151.500732,48.044800 151.371399,48.500977 151.292786,48.947876 151.242920,49.410828 151.209839,49.947388 151.184937,50.516846 151.169983,51.110352 151.164978,51.709045 151.169983,52.293945 151.184937,52.845947 151.209839,53.346191" />
			</g>
		</g>
	</g>
</svg>
